<?xml version="1.0" standalone="no"?>
<!DOCTYPE svg PUBLIC "-//W3C//DTD SVG 1.1//EN" "http://www.w3.org/Graphics/SVG/1.1/DTD/svg11.dtd" >
<svg xmlns="http://www.w3.org/2000/svg">
<metadata>Generated by IcoMoon</metadata>
<defs>
<font id="icomoon" horiz-adv-x="1024">
<font-face units-per-em="1024" ascent="877.5" descent="-146.5" />
<missing-glyph horiz-adv-x="1024" />
<glyph unicode="&#x20;" horiz-adv-x="342.5" d="" />
<glyph unicode="&#xe900;" glyph-name="dot-array-y" d="M634.88 746.967c0-67.871-55.030-122.88-122.88-122.88v0c-67.871 0-122.88 55.009-122.88 122.88v0c0 67.85 55.009 122.88 122.88 122.88v0c67.85-0.020 122.88-55.030 122.88-122.88v0zM634.88 15.36c0-67.871-55.030-122.88-122.88-122.88v0c-67.871 0-122.88 55.009-122.88 122.88v0c0 67.85 55.009 122.88 122.88 122.88v0c67.85 0 122.88-55.030 122.88-122.88v0zM634.88 384c0-67.871-55.030-122.88-122.88-122.88v0c-67.871 0-122.88 55.009-122.88 122.88v0c0 67.85 55.009 122.88 122.88 122.88v0c67.85 0 122.88-55.030 122.88-122.88v0z" />
<glyph unicode="&#xe901;" glyph-name="home" d="M785.92 366.131c0 20.91 16.876 37.683 37.765 37.683 20.91 0 37.786-16.794 37.786-37.683v-370.012c0-20.91-16.876-38.031-37.786-38.031h-623.288c-20.89 0-37.765 17.142-37.765 38.031v370.012c0 20.91 16.876 37.683 37.765 37.683s37.765-16.794 37.765-37.683v-332.349h121.61v373.023c0 12.677 10.179 22.753 22.651 22.753h259.154c12.595 0 22.753-10.076 22.753-22.753v-373.023h121.61v332.349h-0.020zM405.074 33.802h213.811v350.228h-213.811v-350.228zM85.033 355.707c-14.725-14.93-38.707-14.93-53.432 0-14.828 14.93-14.828 38.81 0 53.35l453.673 453.939c14.725 14.541 38.707 14.541 53.514 0l0.655-0.758 453.018-453.202c14.725-14.541 14.725-38.42 0-53.35-14.746-14.93-38.707-14.93-53.432 0l-426.988 427.11-427.008-427.090z" />
<glyph unicode="&#xe902;" glyph-name="arrow-down" d="M20.48 589.066l59.986 56.934 431.534-410.071 431.575 410.071 59.945-56.934-491.52-467.067-491.52 467.067z" />
<glyph unicode="&#xe903;" glyph-name="arrow-up" d="M1003.52 178.934l-59.986-56.934-431.534 410.071-431.575-410.071-59.945 56.934 491.52 467.067 491.52-467.067z" />
<glyph unicode="&#xe904;" glyph-name="go" d="M556.933 875.52l-56.934-59.986 410.071-431.534-410.071-431.575 56.934-59.945 467.067 491.52-467.067 491.52z" />
<glyph unicode="&#xe905;" glyph-name="back" d="M467.067 875.52l56.934-59.986-410.071-431.534 410.071-431.575-56.934-59.945-467.067 491.52 467.067 491.52z" />
<glyph unicode="&#xe906;" glyph-name="enlarge" d="M296.776 253.010c23.142 23.634 61.071 23.634 84.214 0.983 23.634-23.634 23.634-61.071 0.492-84.726l-156.611-156.59h133.96c32.993 0 60.088-26.604 60.088-60.109 0-33.485-27.095-60.088-60.088-60.088h-278.262c-33.485 0-60.088 26.604-60.088 60.088l0.492 5.919-0.492 272.835c0 32.502 26.604 59.105 60.088 59.105 32.502 0 59.597-26.604 59.597-59.105v-134.943l156.611 156.631zM726.733 514.028c-23.634-22.651-61.071-22.651-84.726 0.983-22.651 22.651-22.651 61.071 0.492 83.722l156.611 156.611h-134.451c-32.502 0-59.105 26.583-59.105 60.088 0.020 32.502 26.624 60.088 59.126 60.088l273.347-0.983 5.407 0.983c33.014 0 60.088-27.587 60.088-60.088v-278.753c0-32.502-27.075-60.088-60.088-60.088-33.505 0-60.109 27.587-60.109 60.088v133.96l-156.59-156.611z" />
<glyph unicode="&#xe907;" glyph-name="narrow" d="M605.573 815.432c0 33.485 26.604 60.088 59.597 60.088s59.597-26.604 59.597-60.088v-133.96l156.611 156.611c23.634 22.651 61.563 22.651 84.705 0 23.654-23.634 23.163-61.071 0-84.705l-156.59-156.611h133.96c32.993 0 60.088-26.583 60.088-60.088 0-32.502-27.075-59.105-60.088-59.105h-278.303c-32.973 0-59.576 26.583-59.576 59.105v278.753zM80.568 171.233c-32.993 0-60.088 26.604-60.088 59.105 0 33.485 27.095 60.088 60.088 60.088h278.753c32.502 0 59.597-26.604 59.597-60.088l-0.492-4.915v-272.855c0-32.502-26.583-60.088-59.105-60.088-32.993 0-60.088 27.587-60.088 60.088v133.96l-156.611-156.59c-22.651-22.651-61.071-23.654-84.705 0-22.651 23.634-23.142 61.051 0 84.705l156.611 156.611-133.96-0.020z" />
<glyph unicode="&#xe908;" glyph-name="truck" d="M789.77 200.253c20.89 0 37.868-17.162 37.868-38.052 0-20.5-16.978-37.683-37.868-37.683-20.91 0-37.683 17.183-37.683 37.683 0 20.89 16.773 38.052 37.683 38.052v0zM685.486 367.78h208.548l-61.174 122.368h-147.354v-122.368h-0.020zM916.603 322.642h-231.117v-122.757c18.452-2.601 32.645-18.289 32.645-37.683 0-19.763 8.028-37.683 20.91-50.729v0 0c13.066-13.066 30.966-20.91 50.749-20.91 19.21 0 36.557 7.455 49.234 19.395l1.475 1.495c12.882 13.046 20.91 30.577 21.279 49.971v0.778c0 20.91 16.773 38.052 37.683 38.052h28.549v99.615l-11.407 22.774zM932.454 124.518c-6.922-25.354-20.337-48.128-38.236-66.396l-2.621-2.232c-26.481-25.354-62.3-41.042-101.847-41.042-40.489 0-77.23 16.794-104.1 43.274v0c-18.289 18.289-31.703 41.042-38.42 66.396h-221.962c-6.902-25.354-20.337-48.128-38.42-66.396-26.685-26.481-63.427-43.274-104.284-43.274-40.653 0-77.599 16.794-104.264 43.274-18.104 18.289-31.539 41.042-38.236 66.396h-81.9c-20.89 0-37.683 17.183-37.683 37.683v552.899c0 20.91 16.794 38.052 37.683 38.052h589.476c20.89 0 37.868-17.162 37.868-38.052v-149.217h170.496c16.036 0 29.635-10.076 35.246-24.269l108.175-216.371c2.806-5.222 4.096-11.203 4.096-16.773v0-146.268c0-20.5-16.773-37.683-37.683-37.683h-33.382zM609.935 677.417h-513.72v-477.164h76.657c20.89 0 37.868-17.162 37.868-38.052 0-19.763 8.192-37.683 21.074-50.729 12.882-12.698 30.966-20.91 50.749-20.91s37.868 8.192 50.934 20.91c12.677 13.046 20.705 30.577 20.89 49.971v0.758c0 20.91 16.978 38.052 37.868 38.052h217.702v477.164h-0.020zM282.563 200.253c20.89 0 37.868-17.162 37.868-38.052 0-20.5-16.978-37.683-37.868-37.683s-37.868 17.183-37.868 37.683c0 20.89 16.978 38.052 37.868 38.052v0z" />
<glyph unicode="&#xe909;" glyph-name="chat" d="M330.506 470.917c-19.763 0-37.868-8.028-50.749-20.89-13.046-13.066-21.053-30.966-21.053-50.749 0-19.763 8.028-37.868 21.053-50.749 12.882-13.066 30.986-21.074 50.749-21.074 19.784 0 37.683 8.028 50.749 21.074 12.882 12.882 20.91 30.966 20.91 50.749s-8.028 37.683-20.91 50.749c-13.066 12.861-30.966 20.89-50.749 20.89v0zM512 827.003c-134.472 0-256.86-47.002-345.457-123.31-90.112-77.578-146.063-185.221-146.063-304.415 0-49.807 9.708-97.935 27.976-142.705 16.036-39.567 38.81-76.677 67.154-110.244l-28.713-124.518c-2.621-12.677-1.884-25.743 2.232-37.294v0c4.465-11.571 11.919-22.016 22.385-29.86 10.445-7.823 22.385-12.677 34.509-13.414h0.184c12.329-1.126 24.637 1.475 36.209 7.844l118.641 63.775c29.839-12.308 61.174-21.996 93.266-29.102 37.868-7.823 77.23-12.308 117.699-12.308 134.492 0 256.676 47.002 345.272 123.372 90.276 77.619 146.227 185.262 146.227 304.456 0 119.009-55.951 226.836-146.248 304.435-88.596 76.104-210.78 123.29-345.272 123.29v0zM808.223 646.431c74.056-63.611 119.562-151.081 119.562-247.153 0-96.256-45.507-183.562-119.562-247.153-75.53-64.922-180.388-105.021-296.223-105.021-35.267 0-69.571 3.727-102.011 10.629-33.587 7.107-65.475 17.715-95.15 31.334-11.203 5.038-23.491 4.301-33.403-1.126h-0.184l-116.019-62.484 28.16 122.921c3.174 13.435-1.475 27.054-10.998 35.82-27.238 30.044-49.070 63.98-63.98 100.721-14.356 35.82-22.385 74.26-22.385 114.36 0 96.072 45.691 183.542 119.562 247.153 75.551 64.922 180.388 105.021 296.407 105.021 115.835 0 220.672-40.1 296.223-105.021v0zM349.164 417.935c4.669-4.669 7.639-11.387 7.639-18.657s-2.99-13.988-7.639-18.657c-4.833-4.854-11.551-7.823-18.657-7.823-7.455 0-14.172 2.99-18.637 7.823-4.854 4.669-7.844 11.387-7.844 18.657s2.99 13.988 7.844 18.657c4.465 4.669 11.182 7.66 18.637 7.66 7.086 0 13.804-2.99 18.657-7.66v0zM512 470.917c-19.968 0-37.868-8.028-50.913-20.89-12.677-13.066-20.91-30.966-20.91-50.749 0-19.763 8.212-37.868 20.91-50.749 13.066-13.066 30.966-21.074 50.913-21.074 19.763 0 37.683 8.028 50.749 21.074 12.861 12.882 20.89 30.966 20.89 50.749s-8.028 37.683-20.89 50.749c-13.066 12.861-30.986 20.89-50.749 20.89v0zM530.657 417.935c4.669-4.669 7.66-11.387 7.66-18.657s-2.99-13.988-7.66-18.657c-4.669-4.854-11.366-7.823-18.657-7.823-7.27 0-13.988 2.99-18.657 7.823-4.854 4.669-7.66 11.387-7.66 18.657s2.806 13.988 7.66 18.657c4.669 4.669 11.387 7.66 18.657 7.66s13.988-2.99 18.657-7.66v0zM693.494 470.917c-19.784 0-37.868-8.028-50.749-20.89-13.066-13.066-21.074-30.966-21.074-50.749 0-19.763 8.028-37.868 21.074-50.749 12.882-13.066 30.966-21.074 50.749-21.074s37.683 8.028 50.749 21.074c12.861 12.882 20.89 30.966 20.89 50.749s-8.028 37.683-20.89 50.749c-13.066 12.861-30.966 20.89-50.749 20.89v0zM712.151 417.935c4.669-4.669 7.639-11.387 7.639-18.657s-2.99-13.988-7.639-18.657c-4.854-4.854-11.571-7.823-18.657-7.823-7.27 0-14.008 2.99-18.657 7.823-4.833 4.669-7.823 11.387-7.823 18.657s2.99 13.988 7.823 18.657c4.669 4.669 11.387 7.66 18.657 7.66 7.086 0 13.804-2.99 18.657-7.66v0z" />
<glyph unicode="&#xe90a;" glyph-name="checkmark" d="M933.233 701.174l-572.416-552.489-268.964 282.624c-15.831 16.589-42.209 16.978-58.614 0.983-16.548-15.831-17.039-42.086-1.167-58.88l297.82-312.361c7.926-8.131 18.063-15.913 29.921-12.657 10.691 0 21.033 4.239 28.733 11.633l602.235 581.489c16.507 15.831 17.060 42.23 1.208 58.675-15.995 16.445-42.312 16.835-58.757 0.983z" />
<glyph unicode="&#xe90b;" glyph-name="cancel" d="M925.184 846.5l-411.853-397.517-397.435 412.426c-17.654 18.371-46.735 18.801-64.963 1.249-18.391-17.572-18.944-46.879-1.229-65.106l397.21-412.57-411.853-397.353c-18.309-17.777-18.862-46.715-1.188-65.188 9.052-9.38 21.033-13.947 33.116-13.947 11.489 0 23.101 4.116 31.969 12.841l411.75 397.496 397.025-412.119c9.318-9.523 21.279-14.234 33.198-14.234 11.674 0 23.204 4.28 32.010 13.066 18.35 17.551 18.964 46.715 1.249 65.188l-397.107 412.18 411.853 397.517c18.248 17.572 18.883 46.653 1.311 65.106-17.715 18.227-46.899 18.371-65.065 0.963z" />
<glyph unicode="&#xe90c;" glyph-name="list" d="M58.163 232.714c-20.705 0-37.683 16.794-37.683 37.683 0 20.91 16.978 38.052 37.683 38.052h907.674c20.91 0 37.683-17.162 37.683-38.052s-16.773-37.683-37.683-37.683h-907.674zM58.163 459.551c-20.705 0-37.683 16.773-37.683 37.663 0 21.279 16.978 38.052 37.683 38.052h907.674c20.91 0 37.683-16.773 37.683-38.052 0-20.89-16.773-37.663-37.683-37.663h-907.674zM58.163 686.387c-20.705 0-37.683 17.162-37.683 38.031 0 20.521 16.978 37.683 37.683 37.683h907.674c20.91 0 37.683-17.162 37.683-37.683 0-20.89-16.773-38.031-37.683-38.031h-907.674zM58.163 5.898c-20.705 0-37.683 16.773-37.683 37.683s16.978 37.683 37.683 37.683h907.674c20.705 0 37.683-16.773 37.683-37.683s-16.978-37.683-37.683-37.683h-907.674z" />
<glyph unicode="&#xe90d;" glyph-name="user" d="M160.645-70.226c-0.102-20.521-17.080-37.683-37.786-37.294-20.808 0-37.581 16.773-37.581 37.683 0.082 68.669 28.262 120.525 67.154 157.839 53.924 51.855 129.475 74.998 174.531 78.746h0.082v0.369c9.134 0.758 17.347 4.096 22.856 9.708 3.359 3.359 5.796 7.455 6.717 12.329-35.738 29.102-51.958 69.407-65.577 103.363-6.615 16.773-12.411 30.966-16.22 34.324l-0.471 0.389-0.184 0.389-0.389 0.369c-15.954 14.561-38.052 42.189-49.807 73.523-11.653 30.597-14.459 64.553 3.174 95.908-9.503 27.996-14.172 59.699-14.459 91.791h-0.082c-0.369 40.673 6.349 82.452 19.21 120.525l1.126 2.99c18.657 53.35 49.336 92.549 89.17 119.398 42.721 28.365 95.15 42.168 154.296 43.295 21.832 0.369 52.060 0.737 81.244-4.485 33.219-5.98 64.942-19.026 84.419-46.264 39.711 3.359 74.363-18.657 101.601-50.36 33.28-38.81 57.078-94.781 62.198-128.369 3.85-24.637 3.85-50.749 0.471-77.619-2.724-21.647-7.557-44.032-14.193-66.806 20.357-32.461 17.92-67.912 5.714-100.004-11.674-30.966-33.69-58.573-49.562-73.523v0l-0.43-0.369-0.84-0.758c-3.85-3.359-9.646-17.9-16.241-34.324-13.435-33.219-29.286-72.765-63.713-101.868 0.758-5.243 3.277-10.076 6.922-13.824 5.673-5.591 13.967-9.318 23.040-10.056 45.117-3.748 120.607-26.89 174.51-78.746 38.871-37.315 67.154-89.17 67.154-158.228-0.082-20.521-16.957-37.683-37.683-37.294-20.808 0-37.683 16.773-37.601 37.683 0 45.158-18.555 78.746-44.032 103.363-39.916 38.441-95.683 55.214-128.922 58.225-27.034 2.212-51.958 13.804-69.837 31.703-20.357 20.521-49.562 94.781-11.407 118.292 26.194 16.036 40.12 50.749 51.487 79.094 10.199 25.375 19.046 47.391 35.922 62.321h0.205l0.205 0.369c9.605 8.581 23.204 25.375 30.392 44.401 5.038 13.435 6.328 27.976-2.601 37.683v0.389c-9.646 10.445-13.087 30.228-8.684 44.032 7.434 23.88 12.759 46.264 15.483 67.523 2.396 19.784 2.519 38.81-0.287 56.73-3.564 23.142-20.644 62.689-44.81 90.665-13.046 15.299-27.116 25.743-38.605 24.269-13.23-1.864-26.317 0.369-37.97 5.591-10.281 4.854-19.395 12.329-26.399 21.647l-2.232 3.359c-5.673 8.54-20.48 13.742-37.11 16.732-22.282 4.096-47.759 3.727-66.232 3.359-44.872-0.737-83.763-10.445-113.992-30.597-26.317-17.92-46.838-44.401-59.884-81.715l-0.84-2.601c-10.179-29.86-15.483-63.058-15.196-95.15v0-0.389c0.184-28.344 4.936-56.34 14.643-78.725 4.014-7.455 5.407-16.404 3.727-25.006-3.727-24.617-24.064-25.743-12.022-57.467 7.086-18.657 20.234-35.451 29.86-44.401l1.126-0.758 0.471-0.369h-0.102c16.609-15.299 25.375-36.946 35.369-61.952 11.387-28.733 25.375-63.447 51.671-79.483 11.756-6.349 19.866-18.657 19.866-33.219 0.082-32.461-5.12-60.436-29.204-84.705-18.104-17.9-43.090-29.471-70.062-31.703v0c-33.3-2.99-89.088-20.152-128.819-58.225-25.477-24.576-43.95-58.163-43.95-103.711v0z" />
<glyph unicode="&#xe90e;" glyph-name="address" d="M512 875.52c119.296 0 227.328-48.497 305.48-126.484 146.186-146.248 167.444-379.085 51.302-548.844-47.104-69.018-113.889-123.863-192.246-155.955l-137.667-140.657c-14.561-14.541-38.523-14.93-53.35-0.369l-0.389 0.369-0.451 0.758-137.216 139.899c-78.356 32.092-145.142 86.938-192.348 155.955-116.040 169.759-94.761 402.596 51.405 548.844 78.172 77.988 186.184 126.484 305.48 126.484v0zM512 662.118c59.781 0 114.074-24.637 153.252-63.795 39.26-39.178 63.529-93.286 63.529-153.354 0-59.699-24.269-114.156-63.529-153.334-39.178-39.199-93.45-63.447-153.252-63.447-59.884 0-114.176 24.269-153.354 63.447s-63.529 93.635-63.529 153.334c0 60.068 24.351 114.176 63.529 153.354 39.199 39.158 93.471 63.795 153.354 63.795v0zM633.262 566.211c-31.048 30.966-73.953 50.36-121.242 50.36-47.391 0-90.296-19.395-121.262-50.36s-50.176-73.871-50.176-121.262c0-47.37 19.21-90.276 50.176-121.262 30.966-30.966 73.871-49.992 121.262-49.992 47.288 0 90.214 19.046 121.242 49.992 30.884 30.986 50.176 73.871 50.176 121.262 0 47.411-19.292 90.296-50.176 121.262v0zM763.945 695.685c-64.451 64.184-153.518 104.1-251.945 104.1s-187.494-39.916-252.027-104.1c-120.422-120.504-138.24-313.037-42.537-452.956 40.018-58.573 97.096-104.489 163.799-130.97 5.325-1.864 10.363-4.854 14.561-9.318l116.204-118.252 116.204 118.272c3.645 3.727 8.11 6.697 13.251 8.95 67.338 26.112 124.703 72.376 165.007 131.338 95.724 139.899 78.008 332.431-42.516 452.936v0z" />
<glyph unicode="&#xe90f;" glyph-name="user-book" d="M923.197 763.228c19.988 0 35.922-16.957 35.922-37.663v-795.423c0-20.91-15.933-37.663-35.922-37.663h-715.756c-35 0-67.4 7.844-91.279 20.316-31.478 16.609-51.282 42.516-51.282 73.503v796.324c0.696 30.597 20.152 55.951 51.282 72.376 23.88 12.677 56.259 20.521 91.279 20.521h715.756c19.988 0 35.922-16.957 35.922-37.868 0-20.705-15.933-37.683-35.922-37.683h-715.756c-23.695 0-44.749-4.874-59.433-12.493l-11.325-5.796c0.348-0.348 4.608-2.232 11.325-5.775 14.684-7.844 35.738-12.677 59.433-12.677h715.756zM348.365 80.548c0-13.967-10.875-25.416-24.146-25.416-13.23 0-23.9 11.469-23.9 25.416 0 38.543 15.032 67.707 35.983 88.74 28.467 28.938 68.403 41.882 92.119 43.95v0c3.584 0.43 6.922 1.884 9.093 4.157l1.208 1.434c-17.428 16.282-25.702 37.499-32.42 55.665-3.154 8.315-5.939 15.626-7.107 16.855l-0.819 0.614c-8.479 8.356-20.152 23.962-26.481 41.267s-7.905 36.454 0.799 54.17c-4.567 15.217-6.738 32.092-6.738 48.968-0.41 22.303 3.174 45.834 9.871 66.662 9.871 30.863 26.501 53.535 48.046 68.751 22.712 16.036 50.401 23.532 81.613 24.166 11.305 0.43 27.095 0.43 42.516-2.499 17.224-3.318 33.792-10.199 44.687-24.781 20.746 1.065 38.953-11.469 53.371-28.979 17.572-21.647 30.269-53.125 32.993-71.639 1.987-14.172 1.987-28.754 0.43-43.54-1.597-11.244-3.768-22.692-6.943-34.796 10.076-18.35 8.704-38.339 2.191-56.259l-0.819-2.089c-6.513-16.855-17.756-31.887-26.051-39.793l-0.799-0.614c-1.188-1.659-3.973-8.54-6.738-16.445-6.697-17.715-14.623-38.789-31.642-55.009 0.43-0.655 0.778-1.475 1.372-2.109v0c2.212-2.273 5.366-3.973 8.929-4.157v0c23.716-2.089 63.857-15.012 92.508-43.95 20.562-21.033 35.594-50.012 35.594-88.74 0-13.967-10.67-25.211-23.736-25.416-13.23 0-24.105 11.469-24.105 25.416 0 22.692-8.704 39.772-20.951 52.285-19.538 19.804-47.043 28.733-63.263 29.983v0.205h-0.184c-14.868 1.27-28.652 7.926-38.564 18.35v0l-0.184 0.205c-10.097 10.424-16.241 25.006-16.241 41.472v0 7.7c-0.205 8.54 3.809 17.285 11.284 22.282 12.268 7.721 18.985 25.641 24.515 40.428 5.325 13.763 9.851 25.825 18.964 34.775l0.799 0.86c4.567 4.157 10.486 12.083 14.029 21.033l0.43 1.249c1.966 5.612 2.56 11.653-0.43 15.421v0c-3.359 3.953-5.734 9.38-6.103 15.196l-0.225 2.089c-0.553 3.564-0.205 7.516 1.004 11.264 3.584 12.513 6.349 24.371 7.516 35.41 1.208 10.65 1.372 20.398 0 29.389-1.597 11.878-10.097 32.072-21.77 46.633-5.734 6.902-11.653 11.899-15.831 11.469v0c-7.475-1.249-15.38 0.205-21.729 3.359v0c-6.328 2.888-11.858 7.7-16.015 13.967l-0.983 1.27c-1.966 3.318-8.274 5.591-15.811 7.066-10.875 1.884-23.736 1.884-32.993 1.679-22.139-0.635-41.329-5.427-56.156-15.831-12.841-9.175-22.712-23.122-29.061-42.701l-0.164-0.225c-4.956-15.647-7.7-33.116-7.537-49.807 0.205-15.421 2.56-30.208 7.7-42.086 3.973-9.134 2.191-20.623-4.137-28.119-3.154-3.768-2.56-9.81-0.573-15.421 3.359-9.155 9.482-17.285 13.824-21.873l0.799-0.614c9.482-8.765 14.234-21.258 19.558-35.41 5.755-14.991 12.636-33.116 25.149-41.042v0c7.086-4.383 11.837-12.472 11.837-21.668v-7.7c0-16.486-6.349-31.068-16.2-41.472-10.301-10.629-24.166-17.285-38.769-18.76v0.164c-16.425-1.454-43.889-10.404-63.263-30.208-12.268-12.288-21.156-29.573-21.156-52.265v0zM207.442 687.677c-25.825 0-50.074 4.28-70.758 11.551v-712.95c0 0 4.424-2.068 11.325-5.775 14.684-7.66 35.738-12.493 59.433-12.493h679.834v719.667h-679.834z" />
<glyph unicode="&#xe910;" glyph-name="group" d="M512.061 852.46c107.438 0 199.537-80.753 215.9-188.129 16.343 5.14 33.587 8.028 51.425 8.028 47.964 0 91.546-19.886 123.003-51.937 31.478-32.051 50.975-76.575 50.975-125.317 0-46.797-17.879-89.395-46.961-121.119l41.431-42.004c18.268-18.903 32.154-39.731 41.513-62.792v0.328c9.441-23.388 14.172-48.087 14.172-74.67v-122.511c0-13.763-4.26-28.529-12.186-39.731-8.561-12.165-21.176-21.156-37.274-23.081-1.27 0-2.54-0.307-3.789-0.307v0h-39.875v-61.297c0-17.92-14.316-32.358-31.867-32.358h-733.020c-17.613 0-31.846 14.438-31.846 32.358v61.297h-39.956c-1.167 0-2.417 0.307-3.686 0.307-16.2 1.925-28.774 10.916-37.274 23.081-7.946 11.203-12.268 25.948-12.268 39.711v122.511c0 26.604 4.792 51.282 14.152 74.67l0.061-0.328c9.359 23.060 23.286 43.909 41.533 62.792l41.37 42.004c-29.020 31.724-46.858 74.322-46.858 121.119 0 48.722 19.497 93.266 50.934 125.317 31.457 32.051 74.957 51.937 123.023 51.937 17.756 0 35.062-2.888 51.425-8.028 16.282 107.397 108.442 188.15 215.941 188.15v0zM610.406-19.395v146.309l0.143 2.56v115.343c0 10.916 8.581 19.579 19.21 19.579 10.547 0 19.108-8.663 19.108-19.579v-226.12h82.35c1.024 1.925 1.577 145.408 1.577 147.927v69.243c0 24.678-4.26 47.739-12.739 68.608v0.328c-5.1 12.8-12.042 24.658-20.439 36.209v0l-0.082 0.328-0.451 0.635h-0.205l-0.328 0.307-0.287 0.655c-5.059 6.738-10.772 13.148-16.998 19.538v0.328l-68.424 69.55c-30.208-16.015-64.471-25.006-100.762-25.006-36.413 0-70.697 8.991-100.905 25.006l-68.26-69.55h-0.164l0.164-0.328c-6.287-6.41-12.022-12.8-17.039-19.538l-0.41-0.655-0.328-0.307h-0.082l-0.471-0.635-0.061-0.328c-8.499-11.53-15.36-23.409-20.46-36.209h-0.082l0.082-0.328c-8.479-20.869-12.739-43.93-12.739-68.608v-139.53c0-2.56 0.451-75.715 1.495-77.64h82.412v226.12c0 10.916 8.561 19.579 19.128 19.579 10.527 0 19.108-8.663 19.108-19.579v-115.343l0.164-2.56v-146.33l196.772 0.020zM512.061 472.084c84.234 0 154.726 69.53 154.726 157.655 0 87.163-69.386 158.003-154.726 158.003-85.402 0-154.829-70.82-154.829-158.003 0-88.125 70.533-157.655 154.829-157.655v0zM177.93 4.035h92.631c-12.042 4.157-21.729 35.942-28.938 46.182-9.196 13.148-14.152 100.393-14.152 116.408v69.243c0 28.856 4.506 56.095 13.435 82.043-25.559 0.328-49.787 6.717-71.537 17.326l-48.005-49.050c-12.472-12.82-21.832-26.624-27.976-41.677v0 0c-6.062-15.032-9.052-31.396-9.052-49.664v-144.015h55.296v151.081c0 10.895 8.561 19.538 19.128 19.538 10.629 0 19.19-8.643 19.19-19.538v-197.878zM296.284 594.473c-5.919 2.888-12.042 5.775-18.391 7.68-10.322 3.236-21.484 5.12-33.178 5.12-30.351 0-57.979-12.493-77.947-33.014-19.907-20.173-32.256-48.353-32.256-79.155 0-31.068 12.37-59.29 32.256-79.483v0c19.968-20.152 47.575-33.014 77.947-33.014 7.864 0 15.237 0.983 21.934 2.253v0 0c4.547 0.963 9.093 2.232 13.435 3.85 5.509 6.758 11.407 13.455 17.674 19.845v0l61.338 62.177-1.413 1.618h-0.164v0.328c-29.409 29.798-48.128 66.355-58.491 107.049-0.41 3.523-1.311 7.045-2.028 10.568l-0.246 0.963-0.164 0.963-0.307 2.253zM846.131 4.035v197.857c0 10.895 8.602 19.538 19.21 19.538 10.527 0 19.087-8.643 19.087-19.538v-151.081h55.357v144.015c0 18.268-3.133 34.611-9.175 49.664v0c-6.083 15.053-15.421 28.856-27.812 41.677l-48.148 49.050c-21.729-10.609-45.937-16.998-71.496-17.326 8.909-25.948 13.353-53.187 13.353-82.043v-69.243c0-15.995-4.874-103.26-14.152-116.408-7.25-10.24-16.876-42.025-28.856-46.182l92.631 0.020zM727.818 594.473l-0.43-2.232-0.164-0.963-0.061-0.635-0.102-0.328c-8.888-44.544-28.774-85.565-60.539-117.617l-0.082-0.328h-0.102l-1.413-1.618 61.276-62.177h0.082c6.308-6.41 12.206-13.107 17.613-19.845 4.403-1.618 8.888-2.888 13.496-3.85v0 0c6.636-1.29 14.029-2.253 21.955-2.253 30.351 0 57.958 12.861 77.885 33.014h0.041c19.927 20.193 32.256 48.415 32.256 79.483 0 30.802-12.349 58.982-32.297 79.155-19.927 20.521-47.514 33.014-77.885 33.014-11.715 0-22.876-1.905-33.26-5.12-6.246-1.925-12.472-4.813-18.268-7.7v0z" />
<glyph unicode="&#xe911;" glyph-name="RMB" d="M985.559 550.318l-307.2 307.2c-15.237 15.258-37.315 21.361-58.266 16.22-11.018-2.724-20.849-8.458-28.652-16.22-6.963-6.963-12.247-15.606-15.237-25.272-13.967-45.117-38.011-84.337-73.605-119.931-47.534-47.514-109.466-83.517-175.022-121.549-69.53-40.325-141.373-82.084-200.253-140.943-50.033-50.135-84.111-105.841-104.059-170.537-6.758-21.832-0.881-45.466 15.237-61.604l307.2-307.2c15.237-15.258 37.294-21.361 58.225-16.179 11.018 2.744 20.869 8.356 28.672 16.179 6.963 6.963 12.247 15.606 15.217 25.334 13.967 45.117 38.031 84.337 73.605 119.91 47.555 47.514 109.466 83.456 175.063 121.528 69.509 40.346 141.332 82.104 200.233 140.984 50.012 50.012 84.132 105.82 104.059 170.516 6.717 21.791 0.881 45.466-15.217 61.563zM389.14-46.080c-101.765 101.765-205.476 205.496-307.22 307.2 87.286 282.644 465.654 270.295 552.96 552.96 101.765-101.683 205.476-205.435 307.241-307.2-87.306-282.583-465.715-270.316-552.98-552.96zM472.596 194.15h-0.061c-19.21-14.746-37.929-30.31-55.276-47.698-16.671-16.691-31.764-34.284-44.872-52.224l-21.012-28.652 0.061-0.061c-3.85-6.001-3.195-14.029 2.048-19.272 5.98-6.001 15.77-6.001 21.811 0 0.901 0.963 1.638 2.007 2.253 3.052l19.62 26.89c12.165 16.63 26.276 33.014 41.82 48.538 17.224 17.224 33.219 30.556 52.654 45.343l-0.061 0.020c0.532 0.451 1.065 0.799 1.536 1.29 6.042 6.001 6.042 15.77 0 21.77-5.591 5.632-14.479 5.878-20.521 1.004zM671.805 718.787c-6.042 6.062-15.831 6.062-21.893 0-1.106-1.126-1.946-2.478-2.683-3.768l-20.419-27.976c-12.165-16.65-26.214-32.973-41.738-48.517-16.056-16.118-33.505-30.536-51.548-44.36-1.311-0.717-2.54-1.475-3.625-2.642-6.062-6.062-6.062-15.872 0-21.934 5.919-5.939 15.38-6.062 21.504-0.43l0.102-0.061c19.21 14.746 37.929 30.331 55.255 47.698 16.691 16.691 31.785 34.202 44.872 52.142l21.012 28.795-0.061 0.020c5.222 6.164 5.018 15.278-0.778 21.033zM528.22 326.636l-21.361 24.269-47.145-41.492c-9.892-8.704-17.961-9.462-24.33-2.253-6.308 7.188-4.936 15.565 4.157 25.17l32.338 28.467-129.966 36.25c-0.901-0.799-2.58-0.717-5.059 0.307-4.198 1.106-8.212 3.912-12.186 8.417-5.53 6.267-5.038 13.865 1.434 22.794 7.066 4.628 15.217 6.226 24.453 4.792l143.79-38.4-19.866 147.517c-1.167 8.52 1.454 16.404 7.864 23.634 8.786 4.506 16.384 4.014 22.794-1.434 2.376-2.703 4.198-7.496 5.468-14.336-0.123-1.7 0.246-2.99 1.024-3.85l19.476-133.509 32.338 28.467c9.769 6.984 18.289 7.291 25.477 0.922 5.448-8.008 3.645-15.933-5.325-23.818l-47.165-41.513 21.361-24.248 47.165 41.513c9.769 6.984 18.289 7.291 25.477 0.942 5.448-8.028 3.645-15.933-5.325-23.818l-47.165-41.513 47.432-53.903c7.004-9.789 6.001-18.596-2.97-26.501-9.871-8.724-18.76-8.581-26.685 0.41l-47.432 53.903-47.145-41.492c-9.892-8.704-17.961-9.482-24.31-2.253-6.328 7.168-4.956 15.544 4.157 25.149l47.227 41.411z" />
<glyph unicode="&#xe912;" glyph-name="search" d="M246.927 520.602c-5.284-12.165-19.784-18.268-32.317-12.984-12.452 5.284-18.35 19.886-13.087 32.051 7.311 17.469 16.241 33.71 26.501 49.091v0 0c10.363 15.442 22.344 30.044 35.656 43.049v0.41c13.189 13.005 27.709 24.781 43.151 35.328 15.135 10.138 31.58 19.087 49.132 26.378 12.493 5.673 26.911-0.41 32.195-12.984 5.284-12.186-0.594-26.788-13.107-32.072-14.029-6.083-27.628-13.394-40.612-22.323-12.882-8.52-24.863-18.268-35.942-29.245v0c-10.772-10.936-20.828-23.122-29.553-36.127h-0.102c-8.602-12.575-16.036-26.378-21.914-40.571v0zM813.67 140.677l177.705-177.828c16.159-15.79 16.159-42.209 0.225-58.040-15.954-16.241-41.964-16.241-58.081 0l-177.93 177.787c-34.427-28.795-73.216-52.347-115.18-69.796-52.9-21.934-111.002-34.099-171.52-34.099-60.436 0-118.395 12.165-171.397 34.099h-0.205c-54.641 22.733-104.1 56.013-145.428 97.444h-0.082c-41.226 40.96-74.547 90.501-97.403 145.306l-0.819 2.048c-21.299 52.326-33.075 109.978-33.075 169.226 0 60.498 12.083 118.538 33.894 171.295 22.958 55.214 56.259 104.714 97.403 145.715 81.121 81.203 193.331 131.523 317.112 131.523 60.436 0 118.415-12.165 171.438-34.079l0.082-0.41v0.41c55.050-22.733 104.428-56.422 145.613-97.444l1.966-2.028c40.428-40.98 73.114-89.723 95.334-143.299l0.819-2.417c21.524-52.388 33.321-109.609 33.321-169.288 0-60.477-12.206-118.518-34.14-171.274-17.347-41.8-40.919-80.794-69.652-114.852v0zM608.932 765.379c-42.844 17.859-90.255 27.587-140.042 27.587-101.028 0-192.737-40.98-258.929-107.151-33.915-34.099-61.133-74.281-79.626-118.518-17.797-43.028-27.607-90.522-27.607-140.452 0-48.701 9.544-95.396 26.706-137.585l0.901-2.048c18.473-44.646 45.793-85.238 79.626-118.927h-0.102l0.102-0.43c33.71-33.28 74.015-60.477 118.927-79.155v0c42.947-17.859 90.276-27.628 140.001-27.628 49.787 0 97.096 9.769 140.042 27.628 44.585 18.248 84.828 45.466 118.333 78.787l0.573 0.389 0.102 0.43c33.731 33.69 60.969 73.851 79.503 118.927 17.797 42.639 27.648 90.112 27.648 139.612 0 49.111-9.564 95.785-26.829 138.015l-0.819 2.028c-18.268 44.257-44.769 83.64-77.578 116.9l-2.028 2.048c-33.874 33.669-74.322 60.846-118.907 79.544v0 0zM709.796 426.824c0 13.804 11.039 24.801 24.76 24.801 13.64 0 24.678-10.998 24.678-24.801 0-37.745-7.414-75.489-22.118-111.186l-0.41-0.86c-14.234-33.71-35.144-65.782-62.587-92.918-27.73-27.648-59.699-48.722-94.024-62.935-35.656-14.623-73.441-21.914-111.227-21.914-13.599 0-24.637 10.936-24.637 24.801 0 13.353 11.039 24.33 24.637 24.33 31.58 0 62.976 6.103 92.324 18.227 28.324 11.796 54.927 29.245 78.090 52.388 22.835 22.733 40.1 49.132 51.794 76.718l0.512 1.249c12.104 29.204 18.207 60.826 18.207 92.099v0z" />
<glyph unicode="&#xe913;" glyph-name="plus" d="M1003.52 384c0-22.61-18.35-40.96-40.96-40.96h-901.12c-22.61 0-40.96 18.35-40.96 40.96v0c0 22.61 18.35 40.96 40.96 40.96h901.12c22.61 0 40.96-18.35 40.96-40.96v0zM512-107.52c-22.63 0-40.96 18.35-40.96 40.96v901.12c0 22.61 18.33 40.96 40.96 40.96v0c22.61 0 40.96-18.35 40.96-40.96l-0.020-901.12c0-22.61-18.35-40.96-40.94-40.96v0z" />
<glyph unicode="&#xe914;" glyph-name="minus" d="M1003.52 384c0-22.61-18.35-40.96-40.96-40.96h-901.12c-22.61 0-40.96 18.35-40.96 40.96v0c0 22.61 18.35 40.96 40.96 40.96h901.12c22.61 0 40.96-18.35 40.96-40.96v0z" />
<glyph unicode="&#xe915;" glyph-name="heart" d="M485.13-46.203l-374.948 319.816c-39.178 43.622-67.42 95.191-80.835 151.306-12.861 53.637-12.227 110.981 5.12 169.595 15.196 50.729 41.8 96.87 75.817 133.878 34.222 37.376 76.452 66.478 122.327 82.719 53.821 19.128 106.988 19.497 156.692 4.977 44.38-13.271 85.893-38.257 122.737-71.926 36.782 33.669 78.316 58.655 122.696 71.475 49.828 14.602 102.892 14.602 156.692-4.506 45.916-16.241 88.105-45.343 122.348-82.719 33.956-37.417 60.518-83.579 75.756-134.308v0h0.184c17.203-57.774 17.777-115.528 4.895-169.165-13.496-56.115-41.697-107.684-80.835-151.306l-1.966-2.13-373.33-317.706c-14.725-16.179-38.502-16.179-53.248 0.43l-0.102-0.43z" />
<glyph unicode="&#xe916;" glyph-name="heart-2" d="M485.13-46.203l-374.948 319.816c-39.178 43.622-67.42 95.191-80.835 151.306-12.861 53.637-12.227 110.981 5.12 169.595 15.196 50.729 41.8 96.87 75.817 133.878 34.222 37.376 76.452 66.478 122.327 82.719 53.821 19.128 106.988 19.497 156.692 4.977 44.38-13.271 85.893-38.257 122.737-71.926 36.782 33.669 78.316 58.655 122.696 71.475 49.828 14.602 102.892 14.602 156.692-4.506 45.916-16.241 88.105-45.343 122.348-82.719 33.956-37.417 60.518-83.579 75.756-134.308v0h0.184c17.203-57.774 17.777-115.528 4.895-169.165-13.496-56.115-41.697-107.684-80.835-151.306l-1.966-2.13-373.33-317.706c-14.725-16.179-38.502-16.179-53.248 0.43l-0.102-0.43zM512.512 628.408l-31.805 34.263-1.434 1.27c-32.379 34.488-69.55 59.003-109.179 70.697-36.352 10.772-75.346 10.342-114.708-3.768-34.386-12.042-66.191-33.649-92.221-62.382-25.825-28.242-45.875-62.73-57.16-100.557-12.39-41.574-12.841-82.739-3.727-121.385 9.994-41.144 31.334-79.811 61.358-113.5l348.406-289.894 346.46 287.846 1.761 2.068c30.044 33.69 51.466 72.356 61.44 113.5 9.134 38.257 8.561 79.36-3.85 121.385h0.102c-11.244 37.827-31.212 72.315-57.057 100.557-26.010 28.283-57.795 50.34-92.242 62.382-39.342 14.111-78.295 14.111-114.79 3.768-34.775-10.424-67.789-30.781-97.219-58.655v0 0l-44.134-47.596z" />
<glyph unicode="&#xe917;" glyph-name="order" d="M406.016 429.548c-12.288 0-22.221 9.83-22.221 22.221 0 12.022 9.933 22.221 22.221 22.221h320.737c12.206 0 22.118-10.22 22.118-22.221 0-12.39-9.912-22.221-22.118-22.221h-320.737zM295.629 176.681c20.419 0 36.884-16.404 36.884-36.803s-16.486-36.803-36.884-36.803c-20.398 0-36.884 16.404-36.884 36.803s16.466 36.803 36.884 36.803v0zM295.629 332.616c20.419 0 36.884-16.404 36.884-36.803s-16.486-36.803-36.884-36.803c-20.398 0-36.884 16.404-36.884 36.803s16.466 36.803 36.884 36.803v0zM295.629 488.571c20.419 0 36.884-16.404 36.884-36.803s-16.486-36.803-36.884-36.803c-20.398 0-36.884 16.404-36.884 36.803s16.466 36.803 36.884 36.803v0zM511.959 875.52v0c40.079 0 76.411-16.404 102.769-42.639 18.555-18.575 32.154-41.902 38.605-68.137h118.231c12.329 0 22.241-9.83 22.241-22.221v-20.398h101.356c20.398 0 37.007-16.404 37.007-36.803v-756.040c0-20.398-16.609-36.803-37.007-36.803h-766.403c-20.419 0-36.905 16.404-36.905 36.803v756.040c0 20.419 16.486 36.803 36.905 36.803h101.376v20.398c0 12.39 9.933 22.221 22.221 22.221h118.333c6.472 26.235 20.050 49.541 38.523 68.137 26.337 26.235 62.751 42.639 102.748 42.639v0zM607.048 764.764c-5.079 13.844-13.271 26.583-23.552 36.803-18.33 18.575-43.745 29.86-71.516 29.86v0c-27.771 0-53.105-11.284-71.414-29.86-10.301-10.22-18.493-22.958-23.593-36.803h190.075zM793.805 648.52v-20.398c0-12.022-9.912-22.221-22.241-22.221h-519.209c-12.288 0-22.221 10.22-22.221 22.221v20.398h-64.41v-682.435h692.47v682.435h-64.389zM511.959 720.302h-237.466v-69.96h474.952v69.96h-237.486zM406.016 117.658c-12.288 0-22.221 9.83-22.221 22.221 0 12.022 9.933 22.221 22.221 22.221h320.737c12.206 0 22.118-10.199 22.118-22.221 0-12.37-9.912-22.221-22.118-22.221h-320.737zM406.016 273.592c-12.288 0-22.221 9.83-22.221 22.221 0 12.022 9.933 22.241 22.221 22.241h320.737c12.206 0 22.118-10.22 22.118-22.241 0-12.37-9.912-22.221-22.118-22.221h-320.737z" />
<glyph unicode="&#xe918;" glyph-name="label" d="M765.522 750.756c-62.3 0-113.418-50.913-113.418-113.213s51.118-113.418 113.418-113.418c62.28 0 113.029 51.118 113.029 113.418s-50.749 113.213-113.029 113.213v0zM1003.52 406.426v431.247c0 20.705-17.162 37.868-38.052 37.868h-432.374c-10.445 0-20.337-4.28-27.423-11.94l-474.132-473.969c-14.746-14.746-14.746-38.605 0-53.514l432.558-432.476c14.93-14.93 38.81-14.93 53.535 0l0.737 0.369 473.211 473.518c7.086 7.066 11.94 17.531 11.94 27.402v1.495zM927.785 799.805v-379.023l-436.838-437.309-379.208 379.494 437.023 436.838h379.023zM765.522 705.434c37.294 0 67.871-30.413 67.871-67.891s-30.577-67.891-67.871-67.891c-37.315 0-67.891 30.597-67.891 67.891-0.020 37.294 30.208 67.891 67.891 67.891v0z" />
<glyph unicode="&#xe919;" glyph-name="gear" d="M511.959 617.349c127.795 0 233.37-105.595 233.37-233.39s-105.472-233.39-233.37-233.39c-127.693 0-233.39 105.574-233.39 233.39 0.020 128.348 104.96 233.39 233.39 233.39v0zM633.958 770.867c11.284-3.543 22.405-7.455 33.198-11.94 10.998-4.669 21.77-9.708 32.195-15.094l47.206 47.206c14.725 14.725 38.605 14.93 53.35 0.184l0.082-0.184 119.112-119.009c14.725-14.93 14.643-38.83-0.123-53.35l-47.206-47.206c5.53-10.65 10.568-21.258 15.032-32.276 4.485-10.813 8.561-21.811 12.124-33.198h66.806c20.89 0 37.847-16.978 37.847-37.683l-0.164-3.543v-164.925c0-20.91-16.876-37.888-37.683-37.888v0h-66.888c-3.564-11.203-7.557-22.2-12.042-33.198v0c-4.567-11.018-9.605-21.832-15.032-32.092l47.206-47.37c14.766-14.541 14.848-38.42 0.123-53.064l-0.123-0.389-0.553-0.389-118.518-118.641c-14.766-14.561-38.728-14.561-53.35 0l-47.206 47.37c-10.363-5.591-21.074-10.445-32.072-15.299l-1.884-0.369c-10.363-4.485-20.808-8.212-31.437-11.571v-66.785c0-20.91-16.876-37.683-37.765-37.683h-168.468c-20.705 0-37.581 16.773-37.581 37.683h-0.184v66.785c-11.182 3.748-22.282 7.844-33.116 12.329h-0.184c-10.916 4.485-21.729 9.318-32.072 14.93l-47.206-47.37c-14.643-14.561-38.523-14.561-53.35 0h-0.082l-0.553 0.737-118.559 118.661c-14.643 14.643-14.643 38.523 0.082 53.268l47.206 47.186c-5.509 10.465-10.445 21.074-15.012 32.092-4.485 10.813-8.581 21.996-12.124 33.198h-66.826c-20.91 0-37.786 16.978-37.786 37.888l0.102 3.318v165.11c0 20.705 16.876 37.683 37.683 37.683v0h66.888c3.543 11.387 7.66 22.385 12.124 33.198 4.485 11.018 9.523 21.832 14.93 32.276l-47.206 47.206c-14.746 14.541-14.746 38.42-0.082 53.35h0.082l119.112 119.194c14.848 14.746 38.707 14.541 53.453-0.184l47.104-47.206c20.89 10.813 42.906 19.968 65.372 27.034v66.99c0 20.705 16.896 37.683 37.786 37.683h168.468c20.89 0 37.765-16.978 37.765-37.683v-66.97zM638.239 689.152c-15.667 6.349-32.072 11.735-49.050 15.852-17.531 3.338-30.802 18.637-30.802 37.13v57.836h-92.795v-57.815h-0.082c0-17.162-11.756-32.666-29.204-36.762-34.796-8.192-67.809-21.811-98.14-40.653v0c-14.541-8.97-34.038-7.27-46.633 5.407l-40.96 41.042-65.741-65.864 39.649-39.567c13.332-11.94 16.609-32.256 6.82-47.944-9.421-15.299-17.633-31.15-24.433-47.575-6.431-15.667-11.837-32.072-15.954-49.070-3.174-17.51-18.657-30.781-37.13-30.781h-57.938v-92.713h57.836v-0.184c17.265 0 32.748-11.756 36.844-29.102 4.096-17.531 9.605-34.529 16.323-50.565 6.82-16.609 15.012-32.461 24.351-47.575l-0.102-0.184c9.134-14.561 7.373-33.956-5.407-46.633l-40.858-40.858 65.761-65.556 39.649 39.547c11.94 13.332 32.174 16.527 47.944 6.717 15.114-9.318 30.966-17.531 47.391-24.269v-0.369c15.483-6.349 31.908-11.571 49.070-15.688 17.633-3.359 30.966-18.657 30.966-37.294v-57.836h92.795v57.836c0 17.162 11.756 32.829 29.204 36.946 17.080 3.727 33.403 8.95 48.804 15.278l1.843 0.758c16.527 7.086 32.399 15.299 47.473 24.617h0.123c14.52 9.032 33.915 7.188 46.633-5.591l40.837-40.653 65.761 65.556-39.649 39.731c-13.353 11.756-16.527 32.092-6.717 47.944 9.318 15.114 17.51 30.986 24.433 47.391v0c6.369 15.483 11.756 31.908 15.77 49.070 3.359 17.531 18.76 30.781 37.192 30.781h57.958l0.082 92.897h-57.917c-17.162 0-32.85 11.756-36.844 29.307-4.116 17.51-9.523 34.324-16.241 50.545-6.799 16.241-14.725 31.908-23.675 46.285-9.912 14.746-8.315 34.877 4.751 47.944l40.837 40.858-65.741 65.843-39.649-39.711c-11.96-13.251-32.195-16.63-47.964-6.717-15.073 9.298-31.027 17.51-47.473 24.412v0zM511.959 572.006c-103.547 0-187.945-84.5-187.945-188.047 0-103.178 84.89-188.068 187.945-188.068 102.973 0 187.965 85.074 187.965 188.068 0 103.158-84.808 188.047-187.965 188.047v0z" />
<glyph unicode="&#xe91a;" glyph-name="pen" d="M515.707 613.724l228.209-228.209 55.726 55.521-228.209 228.393-55.726-55.706zM711.496 353.096l-228.393 228.024-294.543-294.564 228.209-228.291 294.728 294.83zM612.946 818.033c43.786 36.004 97.628 54.026 151.45 54.026 131.154 0 237.67-106.701 237.67-238.060 0-61.030-23.122-122.061-69.366-168.509l-478.024-477.737c-37.335-37.519-84.521-59.904-133.448-67.092-40.55-5.673-82.637-1.516-121.487 13.64l-13.455-13.64c-51.18-51.18-130.785-28.037-156.57 32.215-13.64 32.215-10.998 70.902 21.238 103.117v0 0l13.66 13.64c-15.155 38.666-19.702 80.732-13.66 121.303 7.209 48.906 29.573 96.195 66.724 133.55l461.722 461.722-33.731 33.731-258.929-258.908c-8.909-9.093-23.491-9.093-32.604 0-8.909 8.909-8.909 23.491 0 32.42l275.21 275.395c9.114 8.909 23.9 8.909 32.604 0l50.995-50.811zM764.375 795.3c-40.94 0-81.674-15.176-112.579-45.486l-47.964-47.944 228.393-228.209 46.244 46.244c31.109 31.457 47.022 72.786 47.022 114.094 0 89.457-71.823 161.3-161.116 161.3v0zM157.082 252.744c-16.302-21.996-26.522-47.022-30.31-72.786-4.731-33.362 0.758-68.239 16.486-98.57 8.909-14.807 7.004-34.509-5.693-47.391l-32.42-32.215c-17.449-17.449 9.482-44.339 26.911-26.89v0l31.089 31.089c11.366 12.882 30.7 16.671 46.633 7.967 30.7-16.302 66.13-22.385 100.27-17.449 25.784 4.157 50.995 14.029 72.97 30.31l-225.935 225.935z" />
<glyph unicode="&#xe91b;" glyph-name="chat-2" d="M857.272 720.896c-88.596 80.179-210.78 129.905-345.252 129.905-134.492 0-256.881-49.541-345.477-129.905-90.092-81.756-146.063-195.174-146.063-320.758 0-52.47 9.708-103.199 27.976-150.344 16.056-41.677 38.81-80.794 67.154-116.183l-28.713-131.297c-2.621-13.353-1.884-26.911 2.232-39.096 4.465-12.37 11.94-23.204 22.385-31.642 10.445-8.274 22.385-13.189 34.529-14.152h0.164c12.329-0.983 24.617 1.782 36.209 8.253l118.62 67.215c29.839-12.8 61.194-23.204 93.286-30.433 37.868-8.479 77.21-13.21 117.699-13.21 134.472 0 256.655 49.725 345.252 130.13 90.317 81.756 146.248 195.154 146.248 320.758 0 125.399-55.931 239.002-146.248 320.758zM808.243 139.674c-75.551-68.362-180.408-110.612-296.223-110.612-35.267 0-69.571 3.891-102.052 11.203-33.567 7.455-65.475 18.657-95.15 32.993-11.162 5.304-23.491 4.547-33.382-1.188h-0.184l-116.040-65.843 28.18 129.536c3.174 14.111-1.495 28.508-10.998 37.745-27.238 31.642-49.070 67.4-64 106.127-14.356 37.745-22.405 78.234-22.405 120.484 0 101.212 45.711 193.372 119.583 260.403 75.551 68.424 180.388 110.653 296.428 110.653 115.814 0 220.652-42.25 296.223-110.653 74.035-67.031 119.562-159.191 119.562-260.403 0.020-101.396-45.507-193.393-119.542-260.444zM731.832 419.123h-438.292c-13.66 0-24.801-10.834-24.801-24.31 0-13.66 11.141-24.494 24.801-24.494h438.292c13.701 0 24.822 10.854 24.822 24.494 0 13.476-11.121 24.31-24.822 24.31zM731.832 288.85h-438.292c-13.66 0-24.801-10.875-24.801-24.31 0-13.455 11.141-24.494 24.801-24.494h438.292c13.701 0 24.822 11.039 24.822 24.494 0 13.414-11.121 24.31-24.822 24.31zM731.832 549.478h-438.292c-13.66 0-24.801-11.059-24.801-24.515s11.141-24.289 24.801-24.289h438.292c13.701 0 24.822 10.813 24.822 24.289s-11.121 24.515-24.822 24.515z" />
<glyph unicode="&#xe91c;" glyph-name="camera" d="M722.633 737.413h85.704c14.768 0 28.265-6.246 37.936-15.775 9.489-9.71 15.674-23.309 15.674-37.977v-41.301c0-14.848-6.205-28.246-15.674-37.996l-1.834-1.471c-9.469-8.784-22.242-14.304-36.103-14.304h-85.704c-14.587 0-27.903 6.064-37.573 15.775v0.202c-9.831 9.71-15.674 23.109-15.674 37.795v41.301c0 14.666 6.044 28.246 15.674 37.977v0c9.51 9.529 22.988 15.775 37.573 15.775v0zM512 573.379c61.81 0 118.523-21.658 163.228-57.821h243.251v157.265c0 33.040-13.317 63.12-34.974 84.958-21.738 21.839-51.616 35.418-84.656 35.418h-574.059c-32.134 0-61.266-12.834-82.803-33.746l-1.451-1.672c-21.9-21.839-35.216-51.918-35.216-84.958v-157.265h243.473c44.463 36.164 101.378 57.821 163.208 57.821v0zM718.604 470.792c33.746-44.040 53.812-99.464 53.812-159.461 0-72.286-29.172-137.803-76.396-185.148-47.062-47.325-112.156-76.88-184.019-76.88-72.024 0-136.957 29.576-184.201 76.88-47.043 47.364-76.396 112.881-76.396 185.148 0 60.017 20.408 115.42 53.973 159.461h-200.077v-375.635c0-33.040 13.317-63.139 35.216-84.979 21.496-21.819 51.414-35.397 84.274-35.397h574.039c33.202 0 63.12 13.579 84.656 35.257 21.658 21.819 34.974 51.878 34.974 85.12v375.635h-199.855zM643.84 444.017c-33.726 33.947-80.385 55.040-131.84 55.040-51.636 0-98.315-21.114-131.86-55.040-33.726-33.967-54.719-80.929-54.719-132.686 0-51.737 20.993-98.719 54.719-132.666 33.544-33.947 80.224-54.88 131.86-54.88 51.455 0 98.115 20.933 131.84 54.88 33.565 33.947 54.537 80.929 54.537 132.666 0 51.757-20.973 98.719-54.537 132.686v0zM613.942 311.331c0 12.309 10.214 22.383 22.242 22.383 12.39 0 22.262-10.073 22.262-22.383 0-40.374-16.621-77.263-43.073-104.057-26.614-26.573-63.301-43.296-103.392-43.296-12.229 0-22.262 10.114-22.262 22.383 0 12.29 10.033 22.221 22.262 22.221 27.903 0 53.408 11.746 72.024 30.28 18.616 18.696 29.938 44.383 29.938 72.468v0zM417.714 351.504c-4.754-11.363-17.528-16.702-28.809-11.886-11.342 4.754-16.419 17.769-11.867 29.132 7.474 17.628 18.232 33.605 31.368 46.821 13.115 13.196 29.011 24.015 46.499 31.529 11.323 4.754 24.276-0.544 28.991-11.927 4.735-11.202-0.523-24.216-11.846-28.971-11.886-5.158-22.988-12.853-32.295-22.221s-16.944-20.348-22.040-32.477v0zM224.789 867.52h574.039c53.449 0 101.781-21.839 136.796-57.055 35.015-35.257 56.895-84.052 56.895-137.642v-577.665c0-53.59-21.879-102.225-56.895-137.42-35.015-35.418-83.508-57.257-136.796-57.257h-574.039c-53.268 0-101.418 21.839-136.634 57.055-34.995 35.237-56.672 84.032-56.672 137.622v577.665c0 53.59 21.677 102.385 56.672 137.642l2.378 2.015c34.874 33.927 82.44 55.040 134.258 55.040v0zM808.337 692.647h-85.704c-2.378 0-4.754-1.108-6.225-2.578h-0.202c-1.611-1.652-2.538-4.029-2.538-6.407v-41.301c0-2.578 0.927-4.956 2.538-6.407h0.202c1.451-1.652 3.828-2.599 6.225-2.599h85.704c2.196 0 4.372 0.564 5.823 1.853l0.564 0.746c1.652 1.632 2.74 3.828 2.74 6.407v41.301c0 2.378-1.088 4.754-2.74 6.407-1.652 1.491-3.808 2.578-6.386 2.578v0z" />
<glyph unicode="&#xe91d;" glyph-name="QRcode" d="M771.072 713.728v70.656h70.656v70.656h-282.604v-141.312h70.636v-70.636h70.636v70.636h70.676zM841.728 713.728h-70.656v-70.636h-70.676v-70.656h-70.636v-70.676h-70.636v-70.656h141.271v70.656h70.676v70.676h70.656v-70.676h70.676v141.312h-70.676v70.656zM771.072 431.104h70.656v70.656h-70.656v-70.656zM912.404 643.072h70.636v70.656h-70.636v-70.656zM983.040 431.104v70.656h-70.636v-70.656h70.636zM912.404 855.040v-70.656h70.636v70.656h-70.636zM559.124 336.896v-70.656h70.636v70.656h-70.636zM700.396 266.24h-70.636v-70.636h70.636v70.636zM559.124 195.604v-70.676h70.636v70.676h-70.636zM841.728 195.604h-70.656v-70.676h-141.312v-70.656h-70.636v-141.312h141.271v70.636h70.676v70.676h141.312v70.656h-70.656v70.676zM983.040-87.040v70.636h-211.968v-70.636h211.968zM841.728 336.896h-141.312v-70.656h141.312v70.656zM912.404 124.928h70.636v211.968h-70.636v-211.968zM40.96 336.896v-141.292h70.656v141.292h-70.656zM111.616 195.604v-70.676h70.656v70.676h-70.656zM111.616-16.404h-70.656v-70.636h141.312v141.312h-70.656v-70.676zM464.896 124.928v70.676h-70.656v-70.676h70.656zM464.896-87.040v70.636h-70.656v-70.636h70.656zM182.272 266.24h70.636v-141.312h-70.636v-70.656h70.636v-141.312h70.656v70.636h70.656v141.312h-70.636v70.676h70.656v70.656h70.656v70.656h-282.624v-70.656zM300.032 690.196h-94.208v-94.228h94.228v94.228zM40.96 855.040v-423.936h423.936v423.936h-423.936zM370.688 525.312h-235.52v235.52h235.52v-235.52z" />
<glyph unicode="&#xe91e;" glyph-name="phone" d="M171.028 875.52h681.964c21.77 0 39.342-16.978 39.342-37.868v-907.325c0-20.91-17.551-37.868-39.342-37.868h-681.964c-21.688 0-39.363 16.957-39.363 37.868v907.325c0 20.89 17.674 37.868 39.363 37.868v0zM379.781 31.99c-13.046 0-23.613 10.281-23.613 22.753 0 12.493 10.588 22.589 23.613 22.589h264.335c13.128 0 23.716-10.076 23.716-22.589 0-12.472-10.609-22.753-23.716-22.753h-264.335zM813.65 799.805h-603.218v-831.611h603.218v831.611z" />
<glyph unicode="&#xe91f;" glyph-name="praise" d="M277.32 481.812c43.725 39.526 84.439 79.258 120.136 121.795 39.936 47.35 74.076 98.816 100.229 157.778 13.066 29.45 25.313 54.989 43.377 75.346 21.463 24.412 48.742 38.789 87.675 38.789 14.971 0 28.611-2.232 40.919-6.164l4.198-1.475c25.17-9.155 43.766-25.743 56.054-47.186h0.184c11.715-20.337 17.469-44.954 17.469-71.066 0-22.569-4.403-47.002-12.657-71.619-8.069-23.122-18.412-48.087-29.184-71.782-8.417-19.395-17.265-38.052-25.334-54.272h153.354v0.164c93.491 0 146.862-97.157 103.096-174.367 66.396-41.595 69.857-143.053 7.475-190.034 32.44-55.194 12.083-132.424-50.483-158.167 3.461-10.26 5.181-20.89 5.181-31.498 0-33.382-16.118-66.949-44.339-86.385l-3.072-2.028c-16.527-10.629-36.454-17.162-60.068-17.162h-238.203c-48.353 0-98.079 11.551-146.637 27.976-35.717 12.349-70.656 27.034-103.67 41.984-13.824-12.124-32.236-19.784-52.224-19.784h-138.015c-21.32 0-40.878 8.581-54.907 22.2-13.988 13.783-22.856 32.645-22.856 53.514v392.397c0 41.39 35.144 75.53 77.742 75.53h138.015c9.236 0 18.452-1.495 26.542-4.485v0zM328.745 34.058c33.608-15.299 68.71-30.618 103.649-42.332 40.714-13.824 81.961-23.511 120.934-23.511h238.223c22.446 0 38.175 23.511 26.296 43.643l-1.167 1.495c-5.755 7.639-8.827 16.22-9.994 25.354-0.963 8.786 0.41 17.695 4.239 26.296 3.85 8.786 9.974 15.852 17.080 21.279 7.475 5.571 16.323 8.97 25.723 10.24v0h0.205c28.406 3.564 37.622 41.574 18.227 59.863-6.717 6.369-11.325 13.804-14.008 22.016v0 0.184c-2.703 8.397-3.256 16.957-1.536 25.539 1.536 8.212 4.977 15.667 9.974 22.2l1.167 1.475c4.997 5.612 10.916 10.465 18.043 13.824l3.441 1.495c10.383 4.26 17.101 12.861 20.152 22.733 1.741 5.243 2.294 10.998 2.13 16.589-0.389 5.243-1.331 10.281-3.052 14.93l-0.573 1.126c-3.666 8.561-10.179 15.831-19.784 19.395l-2.294 0.532c-8.090 2.232-14.971 6.369-21.135 11.756l-2.662 2.621c-19.968 20.705-19.579 53.535 1.147 73.667v-0.184c7.291 7.455 11.162 18.637 11.162 30.003 0 5.98-1.188 12.124-3.092 17.347-1.925 4.854-4.792 9.339-8.417 12.882-6.369 5.98-15.954 9.892-29.020 9.892v0.184h-165.642v-0.184c-50.688 0-85.033 53.146-62.956 97.71 9.011 17.736 19.579 39.731 29.553 62.116 9.994 22.569 19.579 45.507 26.501 65.475 5.55 16.404 8.458 32.809 8.458 47.923 0 13.619-2.335 25.354-7.311 34.12v0 0.205c-3.441 5.775-8.417 10.445-14.95 13.066l-1.925 0.553c-4.669 1.475-10.445 2.232-16.794 2.232-13.23 0-22.057-4.465-28.959-12.493-10.752-11.735-20.152-31.887-30.72-55.767-29.184-65.638-67.195-122.9-111.35-175.473-39.526-46.838-83.292-89.887-130.13-132.035 0.778-4.301 1.147-8.581 1.147-13.251v-376.73h0.020zM250.798 410.767v0 0zM112.783 410.767v-392.397h137.994v392.397c0.020 0-127.611 0-137.994 0v0zM112.783 18.371v0z" />
<glyph unicode="&#xe920;" glyph-name="document" d="M267.346 123.249c-13.906 0-25.231 10.076-25.231 22.753 0 12.493 11.346 22.589 25.231 22.589h489.329c13.926 0 25.211-10.076 25.211-22.589 0-12.677-11.305-22.753-25.211-22.753h-489.329zM145.9 875.52h498.278c11.612 0 22.2-4.096 29.798-10.977l304.374-273.469c8.172-7.475 12.349-17.183 12.349-26.89v-570.388c0-27.812-12.78-53.187-33.116-71.455l-0.184-0.205-0.942-0.737c-20.337-17.9-48.148-28.918-78.459-28.918h-732.099c-30.802 0-58.921 11.387-79.38 29.655l-0.082 0.205-0.123-0.205c-20.337 18.289-33.014 43.848-33.014 71.66v780.452c0 27.976 12.677 53.35 33.014 71.639 20.357 18.289 48.558 29.635 79.585 29.635v0zM618.967 799.99h-473.068c-7.762 0-14.828-2.99-20.111-7.639-5.1-4.669-8.397-10.998-8.397-18.104v-780.431c0-7.107 3.297-13.435 8.397-18.125v-0.205c5.202-4.444 12.247-7.414 20.111-7.414h732.099c7.782 0 14.93 2.99 20.050 7.414l0.205 0.205c5.1 4.69 8.172 11.018 8.172 18.125v547.84h-191.672c-26.235 0-50.319 9.708-67.666 25.17l-1.434 1.495c-16.425 15.503-26.685 36.393-26.685 59.515v172.155zM863.764 586.957l-194.355 174.612v-133.755c0-10.813 4.588-20.521 12.247-27.812l1.167-1.106c8.172-7.27 19.599-11.94 31.949-11.94h148.992zM267.346 442.573c-13.906 0-25.231 10.076-25.231 22.753 0 12.493 11.346 22.569 25.231 22.569h489.329c13.926 0 25.211-10.056 25.211-22.569 0-12.677-11.305-22.753-25.211-22.753h-489.329zM267.346 282.911c-13.906 0-25.231 10.24-25.231 22.733 0 12.513 11.346 22.589 25.231 22.589h489.329c13.926 0 25.211-10.056 25.211-22.589 0-12.493-11.305-22.733-25.211-22.733h-489.329z" />
<glyph unicode="&#xe921;" glyph-name="window" d="M58.327 864.031h907.346c21.053 0 37.847-18.739 37.847-41.82v-876.646c0-23.101-16.794-41.615-37.868-41.615h-907.325c-20.91 0.020-37.847 18.534-37.847 41.636v876.626c0 23.081 16.937 41.82 37.847 41.82v0zM566.538 462.93h199.721c12.534 0 22.61-11.162 22.61-24.965v-220.631c0-13.783-10.056-24.924-22.61-24.924h-199.721c-12.493 0-22.569 11.141-22.569 24.924v220.631c0.020 13.804 10.076 24.965 22.569 24.965v0zM743.547 412.836h-154.44v-170.414h154.44v170.414zM488.223 462.93c12.472 0 22.733-11.162 22.733-24.965 0-14.008-10.26-25.129-22.733-25.129h-230.339c-12.677 0-22.753 11.121-22.753 25.129 0 13.804 10.076 24.965 22.753 24.965h230.339zM488.407 352.666c12.308 0 22.569-11.1 22.569-24.924 0-13.783-10.26-25.129-22.569-25.129h-230.523c-12.493 0-22.753 11.346-22.753 25.129 0 13.824 10.26 24.924 22.753 24.924h230.523zM488.223 242.422c12.472 0 22.733-11.305 22.733-25.108 0-13.783-10.26-24.924-22.733-24.924h-230.339c-12.677 0-22.753 11.141-22.753 24.924 0 13.804 10.076 25.108 22.753 25.108h230.339zM766.259 132.239c12.534 0 22.61-11.325 22.61-25.17 0-13.783-10.056-25.129-22.61-25.129h-508.375c-12.493 0-22.753 11.346-22.753 25.129 0 13.844 10.26 25.17 22.753 25.17h508.375zM868.311 735.908c21.053 0 37.868-18.78 37.868-41.82 0-23.081-16.794-41.841-37.868-41.841-20.746 0-37.888 18.76-37.888 41.841 0.020 23.040 17.162 41.82 37.888 41.82v0zM775.619 735.908c21.053 0 38.031-18.78 38.031-41.82 0-23.081-16.978-41.841-38.031-41.841-20.705 0-37.683 18.76-37.683 41.841 0 23.040 16.978 41.82 37.683 41.82v0zM683.11 735.908c20.89 0 37.663-18.78 37.663-41.82 0-23.081-16.773-41.841-37.663-41.841-20.91 0-37.704 18.76-37.704 41.841 0.020 23.040 16.814 41.82 37.704 41.82v0zM96.010 607.764h831.795v172.605h-831.795v-172.605zM927.805 557.65h-831.795v-570.266h831.795v570.266z" />
<glyph unicode="&#xe922;" glyph-name="cancel-2" d="M512 872.694c-271.462 0-491.52-220.058-491.52-491.52 0-271.442 220.058-491.52 491.52-491.52s491.52 220.078 491.52 491.52c0 271.462-220.058 491.52-491.52 491.52zM753.623 210.657c18.801-18.35 18.801-49.644 0-68.854-18.801-18.391-49.992-18.391-68.772 0l-172.851 172.995-172.831-172.995c-18.801-18.391-49.971-18.391-68.792 0-18.801 19.21-18.801 50.504 0 68.854l172.79 173.015-172.79 172.995c-18.801 19.231-18.801 50.483 0 68.915 18.801 19.21 49.992 19.21 68.792 0l172.831-173.015 172.831 173.015c18.78 19.21 49.971 19.21 68.772 0 18.801-18.432 18.801-49.684 0-68.915l-172.81-172.995 172.831-173.015z" />
<glyph unicode="&#xe923;" glyph-name="picture" d="M305.562 687.514c72.376 0 131.85-59.494 131.85-131.686 0-72.356-59.494-131.85-131.85-131.85s-131.789 59.494-131.789 131.85c0.020 72.192 59.433 131.686 131.789 131.686v0zM58.245 803.717h907.428c20.89 0 37.868-16.794 37.868-37.683v-763.699c0-20.89-16.978-38.031-37.868-38.031h-907.428c-20.89-0.020-37.765 17.142-37.765 38.011v763.72c0 20.89 16.876 37.683 37.765 37.683v0zM927.99 728.166h-831.98v-540.897l178.975 179.036c8.765 8.765 23.306 8.765 32.276 0l135.229-135.393 199.393 199.373c8.97 8.765 23.122 8.765 32.072 0l254.034-253.87v551.752zM96.010 123.126v-83.128h831.98v72.274l-270.090 269.906-183.357-183.337 64.737-64.717c8.765-8.765 8.765-23.122 0-31.928-8.97-8.929-23.327-8.929-32.072 0l-79.462 79.483-0.553 0.369-0.389 0.369-0.553 0.41-0.184 0.553-0.553 0.164-0.389 0.553-133.919 134.124-195.195-195.092zM305.562 642.171c-47.555 0-86.364-38.789-86.364-86.364 0-47.739 38.81-86.548 86.364-86.548s86.344 38.81 86.344 86.548c0.020 47.575-38.769 86.364-86.344 86.364v0z" />
<glyph unicode="&#xe924;" glyph-name="prohibit" d="M512 875.52c-271.462 0-491.52-220.058-491.52-491.52 0-271.442 220.058-491.52 491.52-491.52s491.52 220.078 491.52 491.52c0 271.462-220.058 491.52-491.52 491.52zM805.949 335.299h-587.878c-26.89 0-48.681 21.791-48.681 48.701 0 26.89 21.791 48.681 48.681 48.681h587.878c26.89 0 48.681-21.791 48.681-48.681-0.020-26.89-21.811-48.701-48.681-48.701z" />
<glyph unicode="&#xe925;" glyph-name="warning" d="M511.939 875.848c-271.462 0-491.52-220.058-491.52-491.52s220.058-491.52 491.52-491.52c271.442 0 491.52 220.058 491.52 491.52s-220.078 491.52-491.52 491.52zM563.139 676.762l-18.842-419.43h-64.717l-18.842 419.43h102.4zM554.947 108.237c-12.554-10.916-27.013-16.384-43.418-16.384-16.384 0-30.29 5.734-41.779 17.203-12.022 11.469-18.022 25.395-18.022 41.779 0 17.49 6.001 31.396 18.022 41.779 10.916 10.916 24.863 16.384 41.779 16.384 18.022 0 32.502-5.468 43.418-16.384 11.489-10.383 17.203-24.31 17.203-41.779 0-16.916-5.734-31.109-17.203-42.598z" />
<glyph unicode="&#xe926;" glyph-name="cart" d="M71.68 525.885h0.901c83.988 0 167.875 0 251.863 0 20.275 0 36.659-16.282 36.659-36.557s-16.384-36.741-36.659-36.741c-72.049 0-144.077 0-216.125 0v-73.482c269.066 0 538.194 0 807.26 0v73.482c-71.946 0-144.077 0-216.023 0-20.275 0-36.741 16.466-36.741 36.741s16.466 36.557 36.741 36.557c84.255 0 168.509 0 252.764 0 20.173 0 36.659-16.282 36.659-36.557v-146.801c0-20.255-16.486-36.741-36.659-36.741h-46.346l-54.292-381.829c-2.519-18.104-18.186-31.478-36.209-31.478v0h-606.966c-19.251 0-35.103 14.848-36.557 33.669l-53.944 379.638h-46.326c-20.275 0-36.659 16.486-36.659 36.741v146.801c0 20.255 16.384 36.557 36.659 36.557v0zM289.055 245.78c0 11.96 9.851 21.729 21.975 21.729 12.145 0 21.996-9.769 21.996-21.729v-208.855c0-12.329-9.851-22.098-21.996-22.098-12.124 0-21.975 9.789-21.975 22.098v208.855zM422.994 245.78c0 11.96 9.851 21.729 21.975 21.729 12.145 0 21.996-9.769 21.996-21.729v-208.855c0-12.329-9.851-22.098-21.996-22.098-12.124 0-21.975 9.789-21.975 22.098v208.855zM556.933 245.78c0 11.96 9.851 21.729 21.975 21.729 12.227 0 22.077-9.769 22.077-21.729v-208.855c0-12.329-9.851-22.098-22.077-22.098-12.124 0-21.975 9.789-21.975 22.098v208.855zM690.852 245.78c0 11.96 9.871 21.729 21.996 21.729 12.227 0 22.077-9.769 22.077-21.729v-208.855c0-12.329-9.851-22.098-22.077-22.098-12.124 0-21.996 9.789-21.996 22.098v208.855zM832.963 863.089c13.292 15.196 36.372 16.65 51.589 3.256 15.196-13.21 16.732-36.209 3.441-51.405l-348.529-399.831c-13.21-15.196-36.372-16.65-51.487-3.625-1.536 1.454-2.908 2.724-4.076 4.157l-347.976 399.299c-13.21 15.196-11.653 38.195 3.441 51.405 15.299 13.394 38.38 11.94 51.671-3.256l321.004-368.333 320.922 368.333zM836.116 335.094h-648.335l52.408-369.132h543.539l52.388 369.132z" />
<glyph unicode="&#xe927;" glyph-name="order-checkmark" d="M512 875.52v0c40.079 0 76.513-16.404 102.748-42.639 18.596-18.575 32.072-41.902 38.646-68.137h118.211c12.227 0 22.036-9.83 22.036-22.221v-20.398h101.663c20.214 0 36.803-16.384 36.803-36.803v-756.040c0-20.398-16.589-36.803-36.803-36.803h-766.607c-20.398 0-36.803 16.404-36.803 36.803v756.040c0 20.419 16.404 36.803 36.803 36.803h101.478v20.398c0 12.39 10.015 22.221 22.036 22.221h118.415c6.554 26.235 20.050 49.562 38.625 68.137 26.235 26.235 62.669 42.639 102.748 42.639v0zM671.58 452.506c14.397 14.561 37.908 14.561 52.122 0 14.561-14.561 14.561-37.888 0-52.101l-247.398-247.767c-14.582-14.213-37.908-14.213-52.285 0l-0.737 0.717-123.146 123.167c-14.397 14.193-14.397 37.888 0 52.101 14.377 14.582 37.888 14.582 52.285 0l97.649-97.669 221.512 221.553zM607.109 764.744c-5.1 13.844-13.292 26.604-23.675 36.803-18.227 18.596-43.725 29.88-71.434 29.88v0c-27.709 0-53.207-11.284-71.414-29.86-10.383-10.22-18.575-22.958-23.675-36.803l190.198-0.020zM793.641 648.52v-20.398c0-12.022-9.81-22.221-22.036-22.221h-519.393c-12.022 0-22.036 10.22-22.036 22.221v20.398h-64.492v-682.435h692.47v682.435h-64.512zM512 720.302h-237.568v-69.96h475.136v69.96h-237.568z" />
<glyph unicode="&#xe928;" glyph-name="order-cancel" d="M512 875.52v0c40.079 0 76.513-16.404 102.748-42.639 18.596-18.575 32.072-41.902 38.646-68.137h118.211c12.227 0 22.036-9.83 22.036-22.221v-20.398h101.663c20.214 0 36.803-16.384 36.803-36.803v-756.040c0-20.398-16.589-36.803-36.803-36.803h-766.607c-20.398 0-36.803 16.404-36.803 36.803v756.040c0 20.419 16.404 36.803 36.803 36.803h101.478v20.398c0 12.39 10.015 22.221 22.036 22.221h118.415c6.554 26.235 20.050 49.562 38.625 68.137 26.235 26.235 62.669 42.639 102.748 42.639v0zM607.109 764.744c-5.1 13.844-13.292 26.604-23.675 36.803-18.227 18.596-43.725 29.88-71.434 29.88v0c-27.709 0-53.207-11.284-71.414-29.86-10.383-10.22-18.575-22.958-23.675-36.803l190.198-0.020zM793.641 648.52v-20.398c0-12.022-9.81-22.221-22.036-22.221h-519.393c-12.022 0-22.036 10.22-22.036 22.221v20.398h-64.492v-682.435h692.47v682.435h-64.512zM512 720.302h-237.568v-69.96h475.136v69.96h-237.568zM636.58 455.25c13.517 13.844 36.024 13.844 49.582 0 13.517-13.251 13.517-35.758 0-49.582l-124.559-124.559 124.559-124.559c13.517-13.23 13.517-35.738 0-49.582-13.558-13.271-36.065-13.271-49.582 0l-124.58 124.58-124.559-124.559c-13.537-13.271-36.024-13.271-49.603 0-13.537 13.844-13.537 36.332 0 49.582l124.58 124.559-124.58 124.559c-13.537 13.844-13.537 36.332 0 49.582 13.578 13.844 36.065 13.844 49.603 0l124.559-124.559 124.58 124.539z" />
<glyph unicode="&#xe929;" glyph-name="box-open" d="M526.93 817.357h0.082l358.236-179.118c6.205-2.99 11.018-7.967 14.254-13.599h0.082l99.656-177.787c9.032-16.241 3.318-36.803-12.841-45.773-1.167-0.655-2.499-1.311-3.748-1.659l-78.787-39.465v-200.335c0-14.254-8.868-26.194-21.463-31.171l-355.492-177.787c-9.789-4.977-20.828-4.669-29.942 0h-0.082l-358.216 179.098c-11.694 5.98-18.493 17.572-18.493 29.86h-0.164v200.335l-81.019 40.468c-16.589 8.294-23.224 28.18-15.012 44.79l0.737 1.659h-0.061l99.676 177.787c3.891 6.963 9.789 11.94 16.589 14.582l356.065 178.115c9.789 4.956 20.808 4.628 29.942 0v0zM491.766 28.262v323.4l-55.235-98.836c-5.468-9.626-17.736-12.943-27.443-7.639l-0.246 0.348-221.573 110.449v-175.452l304.497-152.269zM491.766 461.783v278.282l-278.2-139.305 278.2-138.977zM532.132 740.065v-278.282l278.118 139.305-278.118 138.977zM532.132 351.314v-323.052l304.497 152.269v175.78l-222.147-111.124c-9.626-5.304-21.893-1.987-27.382 7.639l-54.968 98.488zM849.981 575.877l-310.456-155.238 73.4-131.359 310.538 155.566-73.482 131.031zM171.602 409.047l239.145-119.747 73.38 131.359-310.211 155.238-73.544-131.359 65.516-32.829c1.987-0.676 3.891-1.679 5.714-2.662v0z" />
<glyph unicode="&#xe92a;" glyph-name="box" d="M528.916 871.465v0l403.046-201.482c13.087-6.349 20.726-19.763 20.726-33.567h0.205v-504.812c0-16.036-9.994-29.471-24.084-35.082l-399.872-199.987c-11.1-5.591-23.491-5.222-33.751 0v0l-403.046 201.482c-13.148 6.717-20.808 19.763-20.808 33.587h-0.205v504.812c0 16.036 9.974 29.471 24.146 35.062l399.872 199.987c11.018 5.591 23.511 5.222 33.772 0v0zM377.815 728.556l335.708-167.895 134.124 67.154-335.606 167.916-134.226-67.174zM176.333 627.814l335.708-167.895 150.999 75.366-335.688 168.284-151.020-75.756zM146.78 592.015v-436.9l342.61-171.254v436.879l-342.61 171.274zM534.712-16.159l342.61 171.254v436.92c-114.278-57.098-228.434-114.176-342.61-171.254v-436.92z" />
<glyph unicode="&#xe92b;" glyph-name="bear-market" d="M681.984 201.728h135.332l-278.753 278.753-159.15-158.966-2.56-2.724c-21.217-21.484-55.747-21.484-76.943 0l-263.475 263.229c-21.34 21.484-21.34 55.849 0 76.82 21.217 21.463 55.726 21.463 76.943 0l225.075-225.075 161.812 162.222c21.34 20.931 55.583 20.931 76.82 0h0.143l317.174-317.46v135.905c0 29.532 24.433 54.231 54.252 54.231 30.085 0 54.784-24.719 54.784-54.231v-266.957c-1.065-29.041-21.484-52.142-50.483-54.272h-1.331l-0.266-0.512h-269.373c-30.085 0-54.538 24.699-54.538 54.804 0 29.512 24.453 54.231 54.538 54.231v0z" />
<glyph unicode="&#xe92c;" glyph-name="lock" d="M788.48 476.16v122.88c0 152.699-123.781 276.48-276.48 276.48s-276.48-123.781-276.48-276.48v-122.88c-50.913 0-92.16-41.247-92.16-92.16v-215.040c0-152.699 123.781-276.48 276.48-276.48h184.32c152.699 0 276.48 123.781 276.48 276.48v215.040c0 50.913-41.247 92.16-92.16 92.16zM296.96 599.040c0 118.764 96.276 215.040 215.040 215.040s215.040-96.276 215.040-215.040v-122.88h-61.44v122.798c0 84.849-68.751 153.6-153.6 153.6s-153.6-68.751-153.6-153.6v-122.798h-61.44v122.88zM634.88 599.040v-122.88h-245.76v122.88c0 67.85 55.030 122.88 122.88 122.88s122.88-55.030 122.88-122.88zM819.2 168.96c0-118.559-96.481-215.040-215.040-215.040h-184.32c-118.559 0-215.040 96.481-215.040 215.040v215.040c0 16.957 13.763 30.72 30.72 30.72h552.96c16.957 0 30.72-13.763 30.72-30.72v-215.040zM512 291.84c-33.935 0-61.44-27.525-61.44-61.44 0-18.678 10.24-54.067 20.48-82.084 8.376-22.794 18.862-40.755 40.96-40.755 24.003 0 32.584 17.777 40.98 40.468 10.383 28.078 20.46 63.611 20.46 82.371 0 33.915-27.525 61.44-61.44 61.44z" />
<glyph unicode="&#xe92d;" glyph-name="notice" d="M817.93-40.284l-330.854 220.529c-11.469 7.537-17.572 20.111-17.633 32.952h-0.082v0.266h-41.37l75.899-217.006c7.168-20.582-3.727-43.11-24.31-50.299l-148.029-51.466c-20.644-7.188-43.192 3.645-50.299 24.228l-105.083 300.339c-39.813 9.789-75.039 31.539-101.601 61.174-31.764 35.492-51.18 82.227-51.18 133.12 0 54.989 22.548 104.96 58.737 141.251l0.164 0.123 0.717 0.717c36.188 35.779 85.873 58.040 140.472 58.040h245.883v0.266c0 14.725 7.967 27.566 19.825 34.406l331.1 220.631c18.248 11.981 42.803 7.045 54.845-11.141 4.444-6.717 6.513-14.336 6.513-21.832h0.164v-269.025c27.075-7.045 51.405-21.053 70.881-40.018l1.434-1.352c28.631-28.672 46.51-68.342 46.51-112.067 0-43.643-17.879-83.333-46.51-112.005v0.061l-0.082-0.061c-19.681-19.661-44.483-34.14-72.233-41.37v-269.066c0-21.893-17.797-39.629-39.649-39.629-9.114 0.020-17.592 3.154-24.228 8.233v0zM501.023 292.762v241.725h-277.565c-33.239 0-63.468-13.619-85.381-35.512-21.852-21.893-35.451-52.122-35.451-85.422 0-30.884 11.674-59.167 30.761-80.466 19.374-21.647 46.49-36.352 76.78-39.69v-0.061c14.664-1.618 27.75-11.407 32.973-26.255l99.697-284.815 73.359 25.539-80.138 229.233c-2.212 4.895-3.4 10.363-3.4 16.036 0 21.873 17.715 39.69 39.629 39.69h128.737zM548.598 573.051v-338.821l253.87-169.247v697.139l-253.87-169.267v-19.804zM881.807 517.14v-207.135c14.643 5.591 27.873 14.254 38.81 25.088l-0.041 0.061c20.009 20.009 32.522 47.821 32.522 78.397 0 30.7-12.513 58.45-32.522 78.459l-1.024 1.085c-10.67 10.363-23.552 18.637-37.745 24.044v0z" />
<glyph unicode="&#xe92e;" glyph-name="news" d="M324.035 528.773c-12.493 0-22.569 10.076-22.569 22.569s10.076 22.753 22.569 22.753h212.050c12.329 0 22.589-10.26 22.589-22.753 0-12.472-10.26-22.569-22.589-22.569h-212.050zM235.090 769.577l33.567-33.587 35.246 35.43c7.455 7.25 16.978 10.998 26.665 10.998v0.205h2.806c11.387 0 21.811-5.018 28.549-13.046l33.567-33.587 35.43 35.43c7.455 7.25 16.957 10.998 26.665 10.998v0.205h2.806c11.387 0 21.647-5.018 28.713-13.046l33.403-33.587 35.43 35.43c7.25 7.25 16.957 10.998 26.665 10.998v0.205h2.806c11.387 0 21.647-5.018 28.549-13.046l33.587-33.587 35.41 35.43c7.27 7.25 16.978 10.998 26.685 10.998v0.205h2.806c11.182 0 21.647-5.018 28.549-13.046l33.567-33.587 35.267 35.43c7.455 7.25 17.162 10.998 26.87 10.998v0.205h2.601c11.571 0 21.811-5.018 28.713-13.046l33.403-33.587 35.615 35.43c14.541 14.93 38.605 14.93 53.33 0 7.414-7.27 11.162-16.957 11.162-26.665v-721.347c0-20.89-17.162-38.031-37.868-38.031h-759.316c-17.162 0-32.44 11.94-36.557 28.713l-147.702 488.018c-5.98 19.968 5.222 41.042 25.17 47.022l121.426 36.741v158.884c0 20.91 16.773 37.868 37.663 37.868 11.592 0 21.647-5.018 28.754-13.046v0zM295.875 656.548l-0.758-0.553v-0.184c-13.988-13.804-36.188-14.561-50.913-2.068v-592.753h683.561v592.957c-14.93-12.698-37.11-11.94-51.098 2.048l-36.741 36.946-36.741-36.925v-0.184c-14.93-14.561-38.81-14.561-53.535 0.184l-36.741 36.946-36.188-36.372-0.389-0.553-0.369-0.184c-14.746-14.561-38.625-14.561-53.33 0.184l-36.557 36.946-36.188-36.372-0.758-0.553v-0.184c-14.93-14.561-38.789-14.561-53.33 0.184l-36.925 36.946-36.209-36.372-0.369-0.553-0.184-0.184c-14.746-14.561-38.625-14.561-53.35 0.184l-36.741 36.946-36.147-36.475zM168.673 278.671v228.291l-63.406-19.231 63.406-209.060zM636.088 574.095h211.866c12.677 0 22.753-10.056 22.753-22.569v-243.773c0-12.472-10.076-22.569-22.753-22.569h-211.866c-12.677 0-22.753 10.076-22.753 22.569v243.794c-0.020 12.493 10.056 22.548 22.753 22.548v0zM825.201 528.773h-166.359v-198.267h166.359v198.267zM324.035 447.468c-12.493 0-22.569 10.26-22.569 22.753s10.076 22.569 22.569 22.569h212.050c12.329 0 22.589-10.056 22.589-22.569s-10.26-22.753-22.589-22.753h-212.050zM324.035 366.326c-12.493 0-22.569 10.076-22.569 22.753 0 12.493 10.076 22.589 22.569 22.589h212.050c12.329 0 22.589-10.076 22.589-22.589 0-12.677-10.26-22.753-22.589-22.753h-212.050zM324.035 285.204c-12.493 0-22.569 10.076-22.569 22.569s10.076 22.753 22.569 22.753h212.050c12.329 0 22.589-10.26 22.589-22.753 0-12.472-10.26-22.569-22.589-22.569h-212.050zM636.088 203.878c-12.677 0-22.753 10.26-22.753 22.753s10.076 22.733 22.753 22.733h211.886c12.677 0 22.753-10.24 22.753-22.733s-10.076-22.753-22.753-22.753h-211.886zM324.035 203.878c-12.493 0-22.569 10.26-22.569 22.753s10.076 22.733 22.569 22.733h212.050c12.329 0 22.589-10.24 22.589-22.733s-10.26-22.753-22.589-22.753h-212.050zM636.088 122.737c-12.677 0-22.753 10.26-22.753 22.753s10.076 22.569 22.753 22.569h211.886c12.677 0 22.753-10.056 22.753-22.569s-10.076-22.753-22.753-22.753h-211.886zM324.035 122.737c-12.493 0-22.569 10.26-22.569 22.753s10.076 22.569 22.569 22.569h212.050c12.329 0 22.589-10.056 22.589-22.569s-10.26-22.753-22.589-22.753h-212.050z" />
<glyph unicode="&#xe92f;" glyph-name="calendar" d="M743.117 18.063c0-11.346-9.277-20.644-20.808-20.644s-20.808 9.298-20.808 20.644v112.517h-168.591v-112.517c0-11.346-9.318-20.644-21.012-20.644-11.366 0-20.808 9.298-20.808 20.644v112.517h-168.591v-112.517c0-11.346-9.38-20.644-20.91-20.644s-20.91 9.298-20.91 20.644v112.517h-83.354c-11.53 0-20.91 9.298-20.91 20.992 0 11.346 9.38 20.972 20.91 20.972h83.354v147.251h-83.354c-11.53 0-20.91 9.646-20.91 20.992 0 11.694 9.38 20.972 20.91 20.972h83.354v112.558c0 11.366 9.38 20.644 20.91 20.644s20.91-9.277 20.91-20.644v-112.517h168.591v112.517c0 11.366 9.441 20.644 20.808 20.644 11.694 0 21.012-9.277 21.012-20.644v-112.517h168.591v112.517c0 11.366 9.277 20.644 20.808 20.644s20.808-9.277 20.808-20.644v-112.517h83.436c11.551 0 20.992-9.277 20.992-20.972 0-11.366-9.441-20.992-20.992-20.992h-83.436v-147.251h83.436c11.551 0 20.992-9.646 20.992-20.972 0-11.694-9.441-20.992-20.992-20.992h-83.436v-112.558zM128.348 599.9h767.201v54.702c0 20.992-8.602 39.916-22.364 54.026v0c-13.926 13.763-33.034 22.364-54.047 22.364h-18.719v-40.264c0-19.272-15.688-34.755-34.918-34.755-19.272 0-34.755 15.483-34.755 34.755v40.284h-437.596v-40.264c0-19.272-15.565-34.755-34.836-34.755s-34.939 15.483-34.939 34.755v40.264h-18.842c-20.91 0-39.997-8.602-53.842-22.364h-0.061c-13.681-13.763-22.282-33.034-22.282-54.026v-54.723zM895.57 530.063h-767.222v-491.336c0-20.992 8.602-40.264 22.364-54.026v0c13.763-13.763 32.85-22.385 53.842-22.385h614.605c20.992 0 39.916 8.622 54.047 22.385v0 0c13.763 13.763 22.364 33.014 22.364 54.026v491.336zM204.554 800.85h18.842v39.916c0 19.272 15.667 34.755 34.939 34.755 19.251 0 34.836-15.483 34.836-34.755v-39.916h437.596v39.916c0 19.272 15.483 34.755 34.755 34.755 19.231 0 34.918-15.483 34.918-34.755v-39.916h18.719c40.12 0 76.759-16.507 103.24-43.008v-0.348l0.676-0.348c26.153-26.501 42.312-62.628 42.312-102.543v-615.895c0-40.264-16.527-76.739-43.008-103.219v0c-26.46-26.481-62.935-43.008-103.219-43.008h-614.605c-39.997 0-76.554 16.527-103.055 43.028h-0.061c-26.419 26.481-42.844 62.956-42.844 103.219v615.875c0 40.264 16.343 76.739 42.844 103.219v0 0c26.399 26.522 62.956 43.028 103.117 43.028v0zM322.499 319.816v-147.251h168.591v147.251h-168.591zM532.91 319.816v-147.251h168.591v147.251h-168.591z" />
<glyph unicode="&#xe930;" glyph-name="bull-market" d="M681.984 565.903c-30.085 0-54.538 24.719-54.538 54.231 0 30.106 24.453 54.804 54.538 54.804h269.394l0.266-0.512h1.372c29-2.13 49.418-25.231 50.483-54.272v-266.957c0-29.532-24.699-54.231-54.784-54.231-29.819 0-54.252 24.699-54.252 54.231v135.905l-317.358-317.481c-21.238-20.931-55.46-20.931-76.82 0l-161.812 162.222-225.075-225.075c-21.217-21.443-55.747-21.443-76.943 0-21.34 20.972-21.34 55.337 0 76.841l263.475 263.229c21.217 21.484 55.726 21.484 76.943 0l2.56-2.724 159.15-158.986 278.753 278.774h-135.352z" />
<glyph unicode="&#xe931;" glyph-name="loading" d="M859.566 731.566h-0.205c-42.578 42.476-92.938 77.148-148.705 101.888l-30.618-69.284c47.247-20.89 90.010-50.033 125.972-85.934 75.162-75.325 121.795-179.384 121.795-294.236 0-114.483-46.633-218.542-121.795-293.868l-1.679-1.884c-74.957-74.199-178.278-120.074-292.413-120.074-114.893 0-218.952 46.612-293.949 121.59h-0.184l0.184 0.389c-75.325 75.305-121.958 179.364-121.958 293.847 0 114.852 46.612 218.911 121.958 294.236l1.495 1.495c35.656 35.308 77.885 63.918 124.477 84.5l-30.618 69.284c-54.886-24.33-104.591-58.327-146.801-100.086l-2.068-1.864c-88.945-89.129-143.974-211.825-143.974-347.566 0-135.373 55.030-258.437 143.974-347.566v0.369c89.149-89.129 212.070-144.323 347.464-144.323 134.636 0 256.614 54.436 345.395 142.090l2.232 1.884c88.781 89.108 143.974 212.173 143.974 347.546 0 135.741-55.194 258.437-143.954 347.566z" />
<glyph unicode="&#xf002;" glyph-name="duoyun" d="M0 173.807q0-51.432 25.181-95.007t68.398-68.755 94.293-25.181h412.529q51.075 0 94.65 25.181t68.933 68.755 25.359 95.007q0 37.86-16.072 76.077 43.574 53.218 43.574 126.080 0 40.717-15.715 77.684t-42.503 63.755-63.755 42.503-77.684 15.715q-84.649 0-147.868-66.433-44.289 25.002-102.865 25.002-80.363 0-142.153-49.825t-79.291-127.687q-63.933-14.644-104.471-65.718t-40.539-117.151zM65.004 173.807q0 47.86 31.967 82.506t80.184 40.36l18.93 1.071q7.143 0 7.143 6.786l2.5 20.716q7.858 61.79 53.575 103.4t107.151 41.61q62.861 0 109.472-41.788t52.325-103.222l2.857-22.144q1.429-6.429 7.858-6.429h61.432q50.36 0 86.792-36.431t36.431-86.435q0-51.789-36.253-88.399t-86.97-36.61h-412.529q-50.003 0-86.435 36.967t-36.431 88.042zM320.379 641.34q0-13.929 9.286-23.93l25.002-24.287q14.287-10.715 24.287-9.643 11.786 0 21.073 9.822t9.286 23.752-10.001 22.501l-22.501 25.002q-10.358 9.286-23.216 9.286-13.929 0-23.573-9.465t-9.643-23.038zM523.964 472.757q39.645 38.217 93.221 38.217 56.432 0 95.899-39.288t39.467-95.721q0-35.717-19.287-70.005-55.361 54.646-132.867 54.646h-12.144q-14.287 62.147-64.29 112.151zM585.754 673.842q0-14.644 8.929-23.573t22.501-8.929q14.644 0 23.573 8.929t8.929 23.573v77.862q0 13.572-9.108 22.501t-23.395 8.929q-13.572 0-22.501-8.929t-8.929-22.501v-77.862zM796.126 586.336q0-14.644 8.572-23.573 12.144-9.286 23.573-9.286 10.358 0 22.501 9.286l54.646 54.646q9.286 10.358 9.286 24.287 0 13.572-9.286 22.859t-22.501 9.286q-13.572 0-22.144-9.286l-56.075-54.646q-8.572-10.358-8.572-23.573zM826.486 135.591q0-13.572 9.643-23.93l24.644-23.93q8.572-9.286 22.144-9.286t22.681 9.465 9.108 23.752q0 12.858-9.286 22.144l-24.644 24.644q-9.286 9.286-21.787 9.286-13.572 0-23.038-9.286t-9.465-22.859zM882.204 375.964q0-13.215 10.001-22.144 9.286-9.286 23.216-9.286h77.862q13.215 0 21.966 8.929t8.751 22.501-8.751 23.038-21.966 9.465h-77.862q-13.572 0-23.395-9.643t-9.822-22.859z" />
<glyph unicode="&#xf00d;" glyph-name="qing" d="M0 384.227q0 17.616 12.196 29.812 12.648 11.745 28.909 11.745h98.47q16.713 0 27.779-12.196t11.067-29.36-11.067-29.135-27.779-11.97h-98.47q-16.713 0-28.909 12.196t-12.196 28.909zM137.768 50.421q0 16.713 11.292 29.36l70.917 68.658q10.841 11.292 28.457 11.292 17.165 0 28.683-10.841t11.518-27.554q0-17.616-11.745-30.715l-68.658-68.658q-29.36-23.037-59.172 0-11.292 12.196-11.292 28.457zM137.768 717.579q0 16.713 11.292 29.36 14.003 11.743 30.715 11.743 15.809 0 28.457-11.743l68.658-70.917q11.743-10.841 11.743-28.457 0-17.165-11.518-28.683t-28.683-11.518q-17.616 0-28.457 11.743l-70.917 68.658q-11.292 12.196-11.292 29.812zM260.629 384.227q0 67.303 33.877 125.346t91.921 91.921 125.346 33.877q50.59 0 97.115-20.101t80.176-53.752 53.526-80.176 19.875-97.115q0-67.755-33.652-125.572t-91.469-91.469-125.572-33.652-125.572 33.652-91.695 91.469-33.877 125.572zM342.387 384.227q0-70.465 49.461-120.378t119.926-49.913 120.378 49.913 49.913 120.378q0 69.562-49.913 118.797t-120.378 49.235q-70.013 0-119.7-49.235t-49.687-118.797zM470.669 9.769q0 17.165 11.97 28.909t29.135 11.745q17.616 0 29.36-11.745t11.745-28.909v-95.76q0-17.616-11.97-29.812t-29.135-12.196-29.135 12.196-11.97 29.812v95.76zM470.669 756.425v98.47q0 16.713 12.196 28.909t28.909 12.196 28.909-12.196 12.196-28.909v-98.47q0-16.713-11.97-27.779t-29.135-11.067-29.135 11.067-11.97 27.779zM736.719 121.338q0 16.713 10.841 27.102 10.841 11.292 27.102 11.292 17.616 0 28.909-11.292l70.465-68.658q11.745-12.648 11.745-29.36t-11.745-28.457q-28.909-22.585-57.817 0l-68.658 68.658q-10.841 12.196-10.841 30.715zM736.719 647.566q0 18.068 10.841 28.457l68.658 70.917q12.648 11.743 28.457 11.743 17.165 0 29.135-12.196t11.97-28.909q0-18.068-11.745-29.812l-70.465-68.658q-13.099-11.745-28.909-11.745-16.261 0-27.102 11.518t-10.841 28.683zM845.578 384.227q0 17.165 11.743 29.812 11.745 11.745 27.554 11.745h97.567q16.713 0 29.135-12.422t12.422-29.135-12.422-28.909-29.135-12.196h-97.567q-16.713 0-28.005 11.97t-11.292 29.135z" />
<glyph unicode="&#xf011;" glyph-name="yangsha" d="M0 178.273q0 16.863 11.382 28.245 11.804 10.961 26.981 10.961h243.669q49.746 0 84.947-35.623t35.201-85.368q0-50.167-34.991-85.368t-85.158-35.201-85.579 35.412q-10.539 10.539-10.539 26.981t10.329 27.191 27.191 10.75q15.598 0 27.402-10.961 13.49-13.069 31.196-13.069t30.775 12.858 13.069 31.407q0 17.706-13.069 30.564t-30.775 12.858h-243.669q-15.598 0-26.981 11.172t-11.382 27.191zM0 314.862q0 16.441 11.382 27.824 11.804 10.961 26.981 10.961h474.269q17.706 0 30.775 13.069t13.069 31.196-13.069 30.986-30.775 12.858q-18.549 0-30.775-12.647-12.226-10.118-28.667-10.118t-26.77 10.329-10.329 26.77q0 16.863 10.118 27.402 34.147 34.147 86.422 34.147 50.167 0 85.368-34.991t35.201-84.736-35.201-84.947-85.368-35.201h-474.269q-16.020 0-27.191 10.75t-11.172 26.348zM96.54 421.098q0-5.48 7.167-5.48h64.922q5.48 0 9.696 6.745 15.177 36.677 47.216 60.706t71.667 26.981l23.608 3.373q8.853 0 8.853 7.588l3.373 23.186q7.167 72.932 61.76 122.467t128.79 49.535q74.618 0 129.423-49.113t62.393-122.888l3.373-26.559q0-7.588 7.588-7.588h72.932q61.128 0 104.761-43t43.633-103.285-43.633-103.285-104.761-43h-310.699q-8.431 0-8.431-7.588v-62.393q0-7.588 8.431-7.588h310.699q61.128 0 112.771 29.932t81.785 81.574 30.142 112.349q0 61.128-30.142 112.56t-81.785 81.364-112.771 29.932h-13.912q-21.079 89.795-94.221 147.129t-167.575 57.334q-95.275 0-168.629-59.231t-93.168-151.555q-57.755-13.49-102.442-55.437t-61.971-99.28v-1.686q-0.843-2.108-0.843-3.794z" />
<glyph unicode="&#xf012;" glyph-name="wu" d="M0.001 175.892q0 15.729 10.889 26.215t27.022 10.486h385.966q15.326 0 25.408-10.284t10.083-26.417q0-15.326-10.284-25.61t-25.207-10.284h-385.966q-16.132 0-27.022 10.284t-10.889 25.61zM113.33 307.37q0 15.326 11.696 25.812 9.276 9.679 25.408 9.679h387.176q14.922 0 24.803-10.083t9.881-25.408-9.881-26.215-24.803-10.889h-387.176q-14.922 0-26.013 11.091t-11.091 26.013zM139.948 407.794q0-6.050 7.26-6.050h61.303q6.050 0 10.083 6.050 14.519 35.088 44.767 58.076t67.756 25.812l23.392 2.823q7.26 0 7.26 7.663l2.823 22.182q7.26 70.176 59.891 116.959t123.614 46.784q70.176 0 121.799-46.179t60.496-116.354l3.226-25.408q0-6.856 7.663-6.856h68.966q58.48 0 99.819-41.137t41.339-99.617q0-56.463-41.944-98.206t-99.214-41.742h-296.432q-7.663 0-7.663-7.26v-57.673q0-7.663 7.663-7.663h296.432q43.557 0 83.283 16.737t68.159 45.372 45.372 67.957 16.939 82.477q0 58.076-28.433 107.078t-77.637 77.435-107.683 28.433h-13.309q-20.972 86.711-90.543 141.763t-158.299 55.052q-91.551 0-161.928-57.068t-89.333-145.796q-55.657-12.503-97.601-52.228t-58.48-95.382v-0.807q-0.807-1.613-0.807-3.226zM189.152 42.8q0 15.729 11.293 25.812 9.679 10.083 25.408 10.083h386.773q15.729 0 26.417-10.284t10.688-25.61-10.889-26.215-26.215-10.889h-386.773q-14.922 0-25.812 10.889t-10.889 26.215z" />
<glyph unicode="&#xf013;" glyph-name="yin" d="M0 244.876q0 68.699 42.775 122.059t109.745 68.483q17.715 81.228 82.093 132.86t148.2 51.632q81.661 0 145.822-50.336t83.173-128.972h12.53q81.228 0 138.693-57.249t57.465-138.477-57.465-138.909-138.693-57.682h-427.745q-39.75 0-76.26 15.554t-62.866 41.91-41.91 62.866-15.554 76.26zM66.97 244.876q0-52.712 38.022-90.518t91.598-37.806h427.745q53.576 0 91.598 37.806t38.022 90.518-38.022 90.302-91.598 37.59h-63.946q-6.913 0-6.913 6.913l-3.024 22.467q-6.913 65.242-54.656 108.233t-112.985 42.991-113.417-43.207-54.224-108.017l-3.024-19.443q0-6.913-7.345-6.913l-20.739-3.024q-49.688-4.321-83.389-41.046t-33.701-86.845zM474.841 646.696q-6.913-6.481 3.457-9.505 29.813-12.962 49.688-25.492 7.777-2.16 10.37 1.296 41.91 39.75 97.647 39.75t96.567-37.374 45.583-92.246l4.321-29.381h65.242q44.935 0 77.34-32.189t32.405-76.693q0-41.478-28.516-72.155t-70.427-35.429q-6.913 0-6.913-7.345v-52.28q0-7.345 6.913-7.345 69.563 4.321 117.523 54.872t47.959 119.682q0 73.019-51.632 124.651t-124.651 51.632h-6.913q-18.147 69.131-75.828 113.85t-128.972 44.719q-97.647 0-161.161-73.019z" />
<glyph unicode="&#xf014;" glyph-name="nongwu" d="M0 183.153q0 15.122 10.469 25.203t25.978 10.081h771.973q15.509 0 25.396-9.887t9.887-25.396q0-14.346-10.275-24.039t-25.009-9.693h-771.973q-15.509 0-25.978 9.693t-10.469 24.039zM108.177 313.043q0 15.122 10.856 24.815 9.306 9.306 24.427 9.306h772.361q14.346 0 24.039-9.887t9.693-24.233q0-14.734-9.693-25.009t-24.039-10.275h-772.361q-14.734 0-25.009 10.469t-10.275 24.815zM113.605 411.527q0-5.428 6.204-5.428h59.323q3.877 0 8.142 6.591 14.734 32.182 44.008 52.732t64.17 23.264l22.876 3.102q6.979 0 6.979 7.367l2.714 20.55q6.591 67.078 56.803 111.861t117.677 44.783q67.078 0 116.901-44.201t56.803-110.891l3.102-23.652q0-6.979 8.142-6.979h65.914q39.936 0 72.7-21.325t48.66-56.609q4.265-6.591 8.53-6.591h59.323q7.367 0 5.816 9.306-18.223 63.588-72.118 103.912t-122.911 40.324h-13.183q-20.55 82.587-86.658 135.125t-151.022 52.538q-86.852 0-154.317-54.476t-86.464-139.002q-52.732-12.407-92.474-50.017t-55.252-89.954v1.551q-0.388-1.163-0.388-3.877zM180.295 56.365q0 14.734 10.856 24.427 9.306 9.306 24.815 9.306h772.749q14.734 0 25.009-9.693t10.275-24.039q0-14.734-10.469-25.203t-24.815-10.469h-772.749q-14.346 0-25.009 10.663t-10.663 25.009z" />
<glyph unicode="&#xf015;" glyph-name="dayu" d="M0 416.666q0-98.693 68.807-169.586t167.964-75.526q8.34 0 8.34 8.34v66.259q0 8.34-8.34 8.34-63.479 3.243-107.96 50.505t-44.481 111.667q0 61.162 41.701 106.57t103.327 52.822l26.411 1.39q9.73 0 9.73 9.267l2.78 26.411q7.877 80.159 67.881 134.139t141.090 53.98q80.623 0 140.858-53.98t68.576-134.139l3.707-28.728q0-8.34 8.804-8.34h79.696q65.795 0 113.984-47.262t48.188-112.13q0-64.405-44.713-111.667t-107.729-50.505q-9.73 0-9.73-8.34v-66.259q0-8.34 9.73-8.34 64.405 1.853 118.617 35.214t85.488 89.195 31.276 120.702q0 66.259-32.898 122.092t-89.426 88.036-122.787 32.203h-15.754q-24.094 99.157-104.022 162.172t-181.864 63.015q-104.253 0-185.339-64.637t-103.79-165.647q-82.013-18.997-135.066-85.488t-53.053-151.747zM269.205 60.814q6.95-15.754 22.704-22.704 14.827-7.414 30.813-0.927t22.009 22.241q7.414 16.217 1.158 31.739t-22.472 21.546q-14.827 7.877-30.349 1.39t-22.936-23.167q-6.95-12.047-0.927-30.118zM300.25 200.282q0-11.584 7.645-22.472t22.936-15.986q14.364-8.34 30.581-0.695t21.777 29.423l44.481 167.269q4.633 18.534-3.938 33.129t-26.179 17.839q-6.024 1.39-12.047 1.39-12.047 0-23.399-7.414t-15.986-21.777l-43.555-167.732q-2.317-10.657-2.317-12.974zM392.456-75.873q0-8.804 2.78-14.364 6.487-16.217 22.241-22.241 6.95-3.707 16.217-3.707 4.633 0 14.827 2.78 16.217 6.024 23.399 22.241t-0.232 32.434-22.009 22.704-30.813 0q-13.9-6.024-20.156-17.607t-6.255-22.241zM428.597 52.938q0-27.338 31.044-36.141 8.34-1.853 12.047-1.853 11.12 0 18.997 3.707 15.29 6.024 20.851 28.264l82.476 310.907q4.633 17.607-3.012 31.971t-24.326 18.997q-6.024 1.39-13.437 1.39-12.047 0-23.862-7.414t-14.595-21.777l-84.329-313.224q-1.853-10.194-1.853-14.827zM598.183 75.642q0-8.804 3.707-15.754 6.024-14.364 21.777-21.777 8.34-3.243 17.144-3.243 4.633 0 14.827 2.78 15.754 6.024 22.704 21.777 5.56 16.217-0.463 31.044t-20.851 22.241q-16.681 7.877-32.203 1.39t-22.936-23.167q-3.707-6.95-3.707-15.29zM633.861 202.599q0-10.657 7.877-22.241t22.241-16.217q11.584-2.317 13.437-2.317 6.95 0 18.071 5.097 14.827 6.95 19.924 25.948l44.481 164.952q1.39 12.51 1.39 12.974 0 11.584-7.645 22.704t-22.472 15.29q-6.487 1.39-12.974 1.39-12.047 0-23.167-7.182t-15.29-22.009l-44.481-165.879z" />
<glyph unicode="&#xf017;" glyph-name="zhongyu" d="M0 420.853q0-97.811 69.070-168.735t167.344-74.169q8.808 0 8.808 8.344v65.825q0 8.808-8.808 8.808-62.58 3.245-107.545 50.296t-44.965 109.632q0 62.117 41.952 108.241t103.605 51.223l25.959 3.708q9.271 0 9.271 8.808l3.708 24.569q7.417 81.123 67.448 135.823t141.617 54.7q80.196 0 140.458-54.236t69.070-133.968l3.245-28.741q0-8.808 9.271-8.808h79.268q66.752 0 114.499-47.746t47.746-113.572q0-62.58-44.733-109.632t-107.777-50.296q-9.735 0-9.735-8.808v-65.825q0-8.344 9.735-8.344 98.738 3.245 167.113 73.938t68.375 168.967q0 66.289-32.913 122.611t-89.467 89.003-122.843 32.681h-15.297q-24.569 99.201-104.301 162.477t-181.715 63.276q-104.301 0-185.423-64.898t-103.837-165.49q-83.44-21.324-135.823-87.381t-52.382-152.279zM267.473 73.648q0-12.516 8.112-25.032t23.41-17.152q17.152-5.099 31.522 1.854t19.469 27.813l6.953 30.131q3.708 16.688-4.636 31.29t-25.496 19.701q-16.688 5.099-31.754-3.708t-19.701-26.423l-6.953-29.204q-0.927-2.781-0.927-9.271zM305.021 216.887q0-15.761 12.516-28.277 11.589-12.516 27.813-12.516 17.615 0 29.668 11.821t12.053 28.972-12.053 28.972-29.668 11.821q-17.152 0-28.741-11.589t-11.589-29.204zM335.153 329.532q-0.927-11.589 6.722-22.483t23.873-15.993q15.297-4.636 30.595 3.477t20.397 25.264l13.907 44.502q5.563 18.079-3.245 32.217t-26.886 19.238q-16.225 5.099-31.29-3.245t-20.165-24.569l-12.053-45.429q0-1.391-0.927-5.794t-0.927-7.185zM392.634-80.717q0-12.98 7.649-24.569t23.873-16.225q6.026-1.391 12.516-1.391 31.522 0 38.939 30.131l6.953 29.204q4.636 19.006-4.172 33.84t-25.959 18.079q-15.761 5.099-31.058-3.477t-20.397-25.264l-6.953-29.204q-1.391-6.49-1.391-11.125zM431.109 62.986q0-16.225 12.516-28.741 12.053-12.053 28.277-12.053 17.615 0 29.204 11.589t11.589 29.204q0 17.152-11.589 28.741t-29.204 11.589-29.204-11.589-11.589-28.741zM462.167 175.167q-0.927-11.125 6.49-23.178t22.251-14.834q17.152-4.636 31.522 2.781t20.397 27.813l13.443 44.502q5.099 16.225-3.477 31.058t-26.191 19.933q-16.225 5.099-31.522-3.94t-20.397-26.191l-11.125-44.502q-1.391-6.026-1.391-13.443zM598.454 69.012q0-12.053 7.649-23.641t22.946-16.225q2.318 0 6.722-0.927t6.722-0.927q30.131 0 37.548 32.449l6.953 29.668q5.099 15.761-3.245 31.058t-25.032 20.397q-18.542 4.636-33.608-3.94t-20.165-26.191l-4.636-29.204q0-1.854-0.927-6.026t-0.927-6.49zM635.075 215.033q0-16.688 12.516-28.277 11.125-12.053 28.277-12.053 17.615 0 29.204 11.589t11.589 28.741q0 17.615-11.589 29.204t-29.204 11.589-29.204-11.589-11.589-29.204zM665.206 329.532q0-12.516 8.112-23.873t24.337-15.993q1.391 0 6.026-0.927t6.953-0.927q7.417 0 17.615 4.636 15.761 8.344 20.397 25.959l12.053 44.502q4.636 16.688-3.708 31.29t-25.032 19.701q-17.152 5.099-31.522-2.781t-19.469-25.032l-13.907-44.965q0-1.854-0.927-5.794t-0.927-5.794z" />
<glyph unicode="&#xf018;" glyph-name="tedabaoyu" d="M0 425.164q0-82.79 48.332-147.31t126.034-88.108q6.475-1.388 12.025 3.7l57.351 70.764q-65.677 0-112.39 47.176t-46.714 113.778q0 62.439 41.626 108.459t103.603 51.108l25.901 3.238q7.863 0 7.863 6.475l3.7 27.288q9.25 81.402 68.683 134.822t140.372 53.42q81.402 0 141.76-53.883t67.758-134.36l3.7-28.676q1.85-8.325 10.638-8.325h80.014q66.602 0 113.315-46.714t46.714-112.853q0-61.514-41.626-107.534t-102.215-53.42q-8.788 0-24.051-2.775-14.338-1.388-20.35-11.1l-116.553-137.828q-10.638-13.413-8.094-30.988t15.494-28.213q7.863-9.25 27.751-9.25 19.425 0 30.063 17.113l104.528 120.253q92.040 9.25 155.404 79.552t63.364 164.192q0 49.951-19.194 95.277t-51.801 77.933-77.702 52.033-95.046 19.425h-15.725q-24.513 98.052-104.759 160.723t-183.386 62.67q-68.914 0-129.734-29.369t-102.446-81.865-55.964-119.559q-83.252-18.5-135.747-84.871t-52.495-152.397zM166.967 29.716q0-4.625 2.775-14.8 6.475-15.725 21.738-21.738 16.188-7.4 32.838-0.925t22.663 22.201q7.4 16.188 0.925 31.913t-22.663 21.276q-16.65 7.863-31.913 1.388t-22.663-23.126q-3.7-7.863-3.7-16.188zM258.081 149.969v-5.088q1.388-16.65 14.8-27.751 16.65-9.25 30.526-9.25 16.65 0 30.063 16.188l114.703 136.441q10.638 12.95 9.713 32.376-1.85 15.725-13.644 26.363t-25.669 10.638q-4.163 0-6.938-0.463-17.113-3.238-27.751-16.188l-116.553-136.903q-9.25-10.638-9.25-26.363zM296.007-82.674q0-8.788 3.7-15.725 6.013-15.725 21.738-23.126 7.863-3.7 16.188-3.7 9.25 0 15.263 3.7 17.113 6.938 23.126 20.35 7.4 16.188 1.156 32.838t-21.969 22.663q-16.188 7.4-33.070 0.925t-22.432-22.201q-3.7-6.938-3.7-15.725zM378.334 32.954v-5.55q1.85-16.188 15.263-27.057t27.288-10.869q16.65 0 30.988 16.188l214.605 258.544q8.325 9.25 8.325 25.438v6.013q-1.85 16.65-13.413 26.363t-25.901 9.713h-6.475q-17.113-0.925-27.288-15.263l-214.605-256.694q-8.788-12.95-8.788-26.826zM551.776-23.935q0-6.475 2.775-14.8 6.475-16.188 22.663-23.126 10.175-2.775 15.263-2.775 10.638 0 16.65 3.7 16.65 6.475 22.663 20.813 7.4 12.488 0.925 32.838-6.013 15.263-21.738 21.738l-17.575 4.625q-6.475-1.388-15.725-3.7-16.188-6.013-22.201-21.738-3.7-8.788-3.7-17.575z" />
<glyph unicode="&#xf019;" glyph-name="baoyu" d="M0 411.557q0 85.218 53.261 151.678t134.773 85.449q23.157 100.964 104.206 165.804t185.256 64.839q101.891 0 181.782-63.218t103.975-162.33h15.747q66.229 0 122.732-32.188t89.386-87.996 32.883-122.037q0-64.839-31.262-120.648t-85.449-89.154-118.564-35.199q-9.726 0-9.726 8.336v65.766q0 8.8 9.726 8.8 62.987 3.242 107.68 50.482t44.693 111.616-48.166 111.848-113.932 47.472h-79.66q-8.8 0-8.8 8.336l-3.705 28.715q-8.336 80.123-68.776 134.079t-140.563 53.956q-81.049 0-141.026-53.956t-67.387-134.079l-3.705-26.399q0-9.263-9.726-9.263l-25.936-1.389q-61.597-7.41-103.512-52.798t-41.914-106.522q0-64.376 44.461-111.616t107.911-50.482q8.336 0 8.336-8.8v-65.766q0-8.336-8.336-8.336-99.112 4.631-167.888 75.492t-68.776 169.509zM264.452 81.339q0 3.242 1.853 9.726l80.586 284.83q4.631 14.357 15.978 21.768t22.925 7.41q5.095 0 12.042-1.389 17.599-3.242 26.63-18.062t3.937-32.883l-80.586-282.978q-9.263-31.493-40.756-31.493-2.779 0-5.558 0.926-4.168 1.389-5.095 1.389-16.21 4.631-24.083 16.441t-7.873 24.315zM394.131-57.603l120.416 433.498q3.242 14.357 14.82 21.768t24.083 7.41q6.484 0 13.431-1.389 16.21-4.631 24.083-19.22t3.242-31.725l-119.953-433.961q-2.779-12.505-14.357-21.304t-25.009-8.8q-6.947 0-12.505 2.316-14.82 3.705-25.473 19.452-8.336 12.968-2.779 31.957zM597.912 79.949q0 2.779 1.853 11.115l80.586 284.83q4.168 14.357 15.052 21.768t22.925 7.41q6.021 0 12.968-1.389 15.284-4.168 22.925-15.284t7.642-23.157q0-2.316-0.926-6.716t-0.926-5.789l-80.586-282.978q-2.779-14.357-13.894-22.925t-25.009-8.568l-12.042 2.316q-14.82 4.168-22.694 15.978t-7.873 23.389z" />
<glyph unicode="&#xf01a;" glyph-name="xiaoyu" d="M0 414.009q0 85.411 53.555 151.892t137.118 85.411q21.699 101.57 102.031 166.896t184.671 65.327q102.954 0 183.055-62.788t104.57-162.511h16.62q66.481 0 122.344-32.548t87.949-88.873 32.086-122.807q0-98.799-67.635-169.436t-165.973-73.869q-8.772 0-8.772 8.311v66.020q0 8.311 8.772 8.311 62.327 5.078 106.648 51.477t44.321 109.186q0 66.020-47.091 113.573t-112.649 47.552h-80.331q-8.772 0-10.619 8.772l-3.694 28.162q-5.078 52.632-34.395 95.336t-75.484 66.944-99.723 24.238q-81.255 0-141.043-53.786t-67.635-134.117l-3.231-26.777q0-6.925-7.848-6.925l-25.854-3.694q-62.327-5.078-104.108-50.785t-41.781-108.494q0-64.173 43.628-110.572t106.878-50.092q8.772 0 8.772-8.311v-66.020q0-8.311-8.772-8.311-48.476 2.308-92.336 22.16t-75.484 52.169-50.092 76.407-18.467 92.566zM266.849 80.678q0 2.308 0.923 6.464t0.923 5.54l13.389 50.785q5.078 16.62 19.621 25.161t31.625 3.463q16.62-5.078 25.392-19.621t3.694-31.625l-12.003-49.861q-9.695-32.318-37.396-32.318-1.847 0-4.386 0.231t-5.54 0.693-4.848 0.461q-15.697 4.617-23.545 16.852t-7.848 23.777zM331.946 317.98q0 1.847 0.693 5.54t0.693 4.617l14.773 51.708q4.617 14.312 15.697 21.93t23.084 7.618q1.847 0 3.924-0.231t4.617-0.693 3.924-0.461q16.62-5.078 25.161-19.621t3.463-31.625l-12.003-49.399q-5.078-20.314-19.853-28.855t-31.856-1.154q-16.159 4.617-24.238 16.62t-8.079 24.007zM392.426-73.522q0 2.308 0.923 6.232t0.923 5.771l14.312 48.938q4.617 17.544 19.621 26.547t32.086 3.924q16.62-5.078 24.931-20.083t3.231-32.086l-12.465-51.246q-7.848-30.009-39.243-30.009-3.694 0-12.003 1.847-16.159 2.77-24.238 15.005t-8.079 25.161zM458.445 161.472q0 4.155 1.847 12.465l13.389 50.785q5.078 16.62 20.083 25.161t32.086 3.463q16.62-4.617 24.931-19.16t2.77-32.086l-12.003-48.938q-9.234-33.241-35.549-33.241-3.231 0-15.236 2.77-16.159 3.231-24.238 14.543t-8.079 24.238zM597.411 78.832q0 5.078 1.385 12.003l13.85 48.938q5.078 17.544 20.083 26.547t31.163 4.386q17.082-5.078 26.085-20.083t4.386-31.163l-14.312-52.169q-7.387-30.009-38.781-30.009-6.925 0-12.927 1.385-14.773 2.77-22.622 15.005t-8.311 25.161zM665.277 313.364q0 2.308 2.308 12.927l14.773 50.785q2.77 15.697 14.312 23.314t24.007 6.694q3.231 0.461 12.003-1.385 16.159-3.694 25.392-18.929 8.772-12.465 3.694-31.856l-12.003-50.785q-9.695-31.856-37.396-31.856-4.617 0-16.62 2.77-15.236 4.617-22.853 15.466t-7.618 22.853z" />
<glyph unicode="&#xf01c;" glyph-name="dongyu" d="M0 327.935q0 85.256 53.285 151.747t134.834 85.488q22.704 101.010 103.79 165.647t185.803 64.637q101.937 0 181.633-63.015t104.253-162.172h15.29q66.259 0 122.787-32.203t89.426-88.036 32.898-122.092q0-99.157-68.344-170.512t-167.037-74.599q-9.73 0-9.73 8.34v65.795q0 8.804 9.73 8.804 63.479 3.243 107.96 50.505t44.481 111.667-48.188 111.899-113.984 47.493h-79.233q-9.267 0-9.267 8.34l-3.243 28.728q-7.877 79.696-68.344 133.908t-141.090 54.212q-81.086 0-141.321-53.98t-68.112-134.139l-2.78-26.874q0-8.804-9.73-8.804l-25.948-1.39q-60.699-2.78-103.095-49.578t-42.396-109.814q0-64.405 44.481-111.667t107.96-50.505q8.34 0 8.34-8.804v-65.795q0-8.34-8.34-8.34-99.157 4.633-167.964 75.526t-68.807 169.586zM292.836 284.38q0 18.071 18.071 48.883t33.824 49.81q15.754 17.607 18.997 20.851l17.607-19.924q18.997-20.387 35.446-50.273t16.449-49.347q0-29.191-19.924-48.652t-49.578-19.461q-29.191 0-50.042 19.924t-20.851 48.188zM440.181 87.457q0 20.387 11.815 47.262t28.959 50.505q13.437 18.997 32.898 41.47t29.654 32.203q5.097 4.633 12.047 11.584l12.047-11.584q27.801-24.557 63.015-72.282 17.607-24.557 29.191-51.432t11.584-47.725q0-47.725-33.593-81.318t-82.244-33.593q-47.725 0-81.549 33.361t-33.824 81.549zM512.927 416.434q0 31.044 48.188 79.233l12.047-12.51q12.974-15.754 23.631-34.983t10.657-31.739q0-18.997-13.669-32.666t-32.666-13.669q-19.924 0-34.056 13.669t-14.132 32.666z" />
<glyph unicode="&#xf021;" glyph-name="shuangdong" d="M0 383.073q0 16.688 11.589 27.813t28.277 11.125h597.526q16.225 0 26.886-10.894t10.662-28.045q0-16.225-10.662-26.886t-26.886-10.662h-597.526q-16.688 0-28.277 10.662t-11.589 26.886zM119.598 526.312q0 16.225 11.589 27.35 11.125 11.125 27.813 11.125h597.99q15.761 0 26.655-11.125t10.894-27.35-10.894-27.582-26.655-11.357h-597.99q-16.225 0-27.813 11.357t-11.589 27.582zM199.33 242.615q0 15.761 12.053 26.886 10.662 10.662 26.886 10.662h598.454q16.688 0 27.813-10.662t11.125-26.886-11.357-27.813-27.582-11.589h-598.454q-16.225 0-27.582 11.589t-11.357 27.813zM722.687 383.073q0 17.152 10.894 28.045t28.045 10.894h223.435q17.152 0 28.045-11.125t10.894-27.813q0-16.225-11.125-26.886t-27.813-10.662h-223.435q-17.152 0-28.045 10.662t-10.894 26.886z" />
<glyph unicode="&#xf024;" glyph-name="baoxue" d="M8.017 362.549q0-92.303 64.352-158.605t157.088-70.636q8.234 0 8.234 7.8v61.969q0 7.8-8.234 7.8-59.369 3.033-100.97 47.235t-41.601 104.437q0 57.635 39.001 100.103t97.070 49.402l24.267 1.3q9.1 0 9.1 8.234l3.467 25.134q7.367 74.969 63.485 125.671t131.954 50.702q74.969 0 131.738-50.702t64.569-125.671l3.467-26.868q0-7.8 7.8-7.8h74.536q61.535 0 106.603-44.418t45.068-105.087q0-60.235-41.601-104.437t-100.97-47.235q-9.1 0-9.1-7.8v-61.969q0-7.8 9.1-7.8 92.303 3.033 156.438 69.769t64.135 159.472q0 59.369-29.901 111.37 54.602 51.568 71.502 120.904l6.067 31.634q1.3 0.867 1.3 3.033 0 5.2-7.367 7.367l-26.001 7.8q-39.435 11.7-67.386 39.218t-39.651 57.635-11.7 60.885q-0.433 16.901 3.467 36.401l6.5 26.868q2.167 6.067-6.5 9.967l-36.835 11.7q-29.034 8.667-60.669 8.667-24.267 0-50.052-5.85t-53.952-18.634-54.818-36.835-46.152-56.552q-52.002 22.534-109.637 22.534-97.937 0-173.772-60.669t-97.070-155.138q-76.702-17.767-126.537-79.953t-49.835-142.355zM261.092 37.539q6.067-14.734 21.234-20.801 13.434-6.934 28.601-1.083t20.801 20.584q6.934 15.167 1.083 29.901t-20.584 20.367q-13.867 6.934-28.601 0.867t-21.667-21.234q-6.934-10.834-0.867-28.601zM290.126 168.41q0-10.4 7.367-20.801t21.234-14.734q17.767-6.934 30.984 0.217t18.417 26.218l40.735 148.205q4.767 17.334-3.683 30.984t-24.917 17.117q-15.167 4.767-29.034-3.033t-18.634-23.401l-40.735-148.638q0-1.3-0.867-5.634t-0.867-6.5zM376.362-90.299q0-8.667 2.6-13.434 6.067-15.167 20.801-20.801 6.5-3.467 15.167-3.467 4.333 0 13.867 2.6 15.601 5.634 22.317 20.801t-0.217 30.334-20.584 21.234-28.384 0q-13.434-5.634-19.501-16.467t-6.067-20.801zM410.597 32.339q0-26.434 29.468-35.968 6.5-2.167 10.834-2.167 7.8 0 16.034 3.9 16.034 5.634 21.667 26.434l76.269 282.976q4.333 16.467-3.25 29.901t-23.184 18.201q-16.034 4.767-30.118-3.033t-18.417-23.401l-77.569-285.143q-1.733-7.8-1.733-11.7zM569.635 51.406q0-8.667 3.033-14.3 5.634-13.867 20.367-20.367 8.234-3.467 16.034-3.467 4.333 0 13.867 2.6 15.167 6.067 20.801 20.367 5.634 15.167 0.217 29.251t-19.284 21.017q-15.167 6.934-30.118 1.083t-21.884-21.451q-3.033-5.634-3.033-14.734zM603.003 169.71q0-11.267 7.15-21.234t21.017-14.3q11.7-1.3 12.567-1.3 28.168 0 35.534 28.168l40.301 146.471q4.333 16.467-3.25 29.901t-23.184 18.201q-16.034 4.767-29.684-3.033t-18.417-23.401l-40.735-146.905q-1.3-6.067-1.3-12.567zM632.904 736.095q21.667 39.868 60.019 60.669t81.253 20.367q7.8 0 11.7-0.867v-14.3q0-67.602 36.185-127.187t100.32-89.92q-13.434-30.334-34.668-49.402-61.102 54.168-150.372 54.168h-14.734q-17.767 86.669-89.703 146.471z" />
<glyph unicode="&#xf026;" glyph-name="daxue" d="M18.611 369.408q0-89.669 63.022-154.805t153.537-68.097q8.036 0 8.036 7.613v60.484q0 7.613-8.036 7.613-57.523 2.961-98.551 46.526t-41.028 100.666q0 57.523 38.278 99.608t94.956 46.738l24.109 2.961q8.882 0 8.882 8.036l2.961 22.84q7.19 74.442 61.964 124.14t129.216 49.698q73.596 0 129.216-49.487t63.233-122.66l3.384-25.801q0-8.459 7.613-8.459h73.173q61.33 0 105.107-43.565t43.777-104.050q0-37.221-18.61-70.424t-50.967-53.928-70.424-22.84q-8.882 0-8.882-7.613v-60.484q0-7.613 8.882-7.613 59.638 1.692 109.125 32.145t78.037 80.998 28.55 109.76q0 59.638-30.876 113.355 56.254 50.333 71.481 118.43l6.344 30.876q1.269 1.269 1.269 3.384 0 3.807-7.613 7.19l-24.955 8.036q-38.913 11.42-66.406 38.278t-39.124 56.254-11.632 58.158q-1.269 14.381 4.23 37.221l5.922 26.224q2.961 6.767-5.922 10.574l-35.952 10.997q-27.493 7.613-58.369 7.613-24.532 0-50.544-5.922t-53.717-18.61-53.928-36.587-45.257-55.62q-54.986 20.725-106.164 20.725-95.59 0-169.821-59.427t-95.379-152.056q-76.134-19.456-124.14-79.941t-48.007-139.156zM262.662 51.337q0-11.42 7.402-22.84t21.36-15.65q15.65-4.653 28.762 1.692t17.765 25.378l6.344 27.493q3.384 15.227-4.23 28.55t-23.263 17.976q-15.227 4.653-28.973-3.384t-17.976-24.109l-6.344-26.647q-0.846-2.538-0.846-8.459zM296.922 182.034q0-14.381 11.42-25.801 10.574-11.42 25.378-11.42 16.073 0 27.070 10.786t10.997 26.435-10.997 26.435-27.070 10.786q-15.65 0-26.224-10.574t-10.574-26.647zM324.415 284.815q-0.846-10.574 6.133-20.514t21.783-14.592q13.958-4.23 27.916 3.172t18.61 23.052l12.689 40.605q5.076 16.496-2.961 29.396t-24.532 17.553q-14.804 4.653-28.55-2.961t-18.399-22.417l-10.997-41.451q0-1.269-0.846-5.287t-0.846-6.556zM376.862-89.51q0-11.843 6.979-22.417t21.783-14.804q5.499-1.269 11.42-1.269 28.762 0 35.529 27.493l6.344 26.647q4.23 17.342-3.807 30.876t-23.686 16.496q-14.381 4.653-28.339-3.172t-18.61-23.052l-6.344-26.647q-1.269-5.922-1.269-10.151zM411.969 41.609q0-14.804 11.42-26.224 10.997-10.997 25.801-10.997 16.073 0 26.647 10.574t10.574 26.647q0 15.65-10.574 26.224t-26.647 10.574-26.647-10.574-10.574-26.224zM440.307 143.967q-0.846-10.151 5.922-21.148t20.302-13.535q15.65-4.23 28.762 2.538t18.61 25.378l12.266 40.605q4.653 14.804-3.172 28.339t-23.898 18.188q-14.804 4.653-28.762-3.595t-18.61-23.898l-10.151-40.605q-1.269-5.499-1.269-12.266zM564.659 47.108q0-10.997 6.979-21.571t20.937-14.804q2.115 0 6.133-0.846t6.133-0.846q27.493 0 34.26 29.608l6.344 27.070q4.653 14.381-2.961 28.339t-22.84 18.61q-16.919 4.23-30.665-3.595t-18.399-23.898l-4.23-26.647q0-1.692-0.846-5.499t-0.846-5.922zM598.074 180.342q0-15.227 11.42-25.801 10.151-10.997 25.801-10.997 16.073 0 26.647 10.574t10.574 26.224q0 16.073-10.574 26.647t-26.647 10.574-26.647-10.574-10.574-26.647zM625.566 284.815q0-11.42 7.402-21.783t22.206-14.592q1.269 0 5.499-0.846t6.344-0.846q6.767 0 16.073 4.23 14.381 7.613 18.61 23.686l10.997 40.605q4.23 15.227-3.384 28.55t-22.84 17.976q-15.65 4.653-28.762-2.538t-17.765-22.84l-12.689-41.028q0-1.692-0.846-5.287t-0.846-5.287zM628.527 738.234q21.571 38.913 59.215 60.273t77.826 20.937q6.344 0 13.535-1.269v-14.381q-0.846-66.406 34.895-124.563t100.031-87.342q-13.112-27.493-35.952-49.91-62.599 51.602-145.5 51.602h-13.958q-21.148 87.977-90.092 144.654z" />
<glyph unicode="&#xf02a;" glyph-name="xiaoxue" d="M6.506 359.061q0-91.947 64.623-158.74t157.438-69.828q8.241 0 8.241 7.807v62.021q0 7.807-8.241 7.807-58.985 3.036-101.055 47.492t-42.070 103.441 39.251 101.923 97.369 47.709l24.722 3.47q9.108 0 9.108 7.807l3.036 23.854q7.373 75.9 63.539 127.078t132.5 51.178q75.466 0 132.283-50.961t64.623-125.994l3.47-26.457q0-8.241 7.807-8.241h75.033q62.889 0 107.778-44.673t44.889-106.694q0-58.985-42.070-103.441t-101.055-47.492q-9.542 0-9.542-7.807v-62.021q0-7.807 9.542-7.807 60.72 1.735 111.465 32.962t80.020 83.273 29.276 112.332q0 63.322-29.926 114.934 51.178 45.974 70.262 119.272l7.807 33.396q0.867 0.867 0.867 3.47 0 5.205-7.373 7.373l-28.191 7.807q-30.36 9.108-53.997 26.457t-37.299 38.817-20.385 43.805-6.723 44.022q0 18.65 4.771 39.902l5.205 28.625q1.735 6.506-6.506 10.409l-36.866 11.277q-30.36 7.373-57.684 7.373-25.589 0-52.046-6.072t-54.648-19.083-54.648-37.083-45.974-56.6q-55.949 22.987-110.163 22.987-98.019 0-174.136-60.937t-97.803-155.92q-78.069-19.517-127.295-81.538t-49.227-142.692zM301.865 169.962q0-16.481 11.060-27.975t27.107-11.493q16.481 0 27.541 11.493t11.060 27.975q0 15.614-11.060 26.89t-27.541 11.277q-16.047 0-27.107-11.277t-11.060-26.89zM301.865 1.681q0-15.614 11.277-26.89t26.89-11.277q16.481 0 27.541 10.843t11.060 27.324-11.060 27.324-27.541 10.843-27.324-10.843-10.843-27.324zM450.196 80.183q0-16.915 11.277-27.324 11.277-11.277 26.89-11.277 16.481 0 28.191 11.277t11.71 27.324q0 16.481-11.71 28.408t-28.191 11.927q-15.18 0-26.673-11.927t-11.493-28.408zM450.196 248.464q0-16.481 11.277-26.89 11.277-11.277 26.89-11.277 16.915 0 28.408 10.843t11.493 27.324q0 16.047-11.71 27.541t-28.191 11.493q-15.614 0-26.89-11.493t-11.277-27.541zM450.196-89.833q0-15.18 11.277-26.457 11.71-11.71 26.89-11.71 16.481 0 28.191 11.060t11.71 27.107q0 16.481-11.71 28.408t-28.191 11.927q-15.18 0-26.673-11.927t-11.493-28.408zM599.827 169.962q0-16.481 11.493-27.975t27.541-11.493 27.107 11.493 11.060 27.975q0 15.614-11.060 26.89t-27.107 11.277-27.541-11.277-11.493-26.89zM599.827 1.681q0-15.614 11.277-26.89t27.758-11.277 27.324 11.060 10.843 27.107q0 16.481-10.843 27.324t-27.324 10.843-27.758-10.843-11.277-27.324zM631.488 736.393q21.686 37.733 60.069 58.335t79.153 21.469q10.409 0 15.18-0.867v-14.313q0-67.226 36.215-126.862t100.405-90.863q-10.843-25.155-35.131-49.443-61.587 54.648-149.198 54.648h-14.313q-19.083 85.442-92.381 147.897z" />
</font>
</defs>
</svg>
